<svg width="386" height="145" viewBox="0 0 386 145" fill="none" xmlns="http://www.w3.org/2000/svg">
<g opacity="0.52">
<rect width="386" height="145" rx="5" fill="black"/>
</g>
<path d="M84.715 114V108.63C85.18 107.805 85.9 107.28 86.71 107.28C87.535 107.28 88.06 107.82 88.06 108.915V114H89.515V108.63C89.515 107.055 88.615 106.02 87.19 106.02C86.08 106.02 85.315 106.53 84.715 107.52V103.26H83.26V114H84.715ZM94.8412 114.135C96.8062 114.135 98.1262 112.845 98.1262 110.1C98.1262 107.355 96.7762 106.02 94.8562 106.02C92.9062 106.02 91.5712 107.355 91.5712 110.1C91.5712 112.845 92.8912 114.135 94.8412 114.135ZM94.8412 112.965C93.6412 112.965 93.0262 112.14 93.0262 110.1C93.0262 108.09 93.6412 107.205 94.8412 107.205C96.0562 107.205 96.6562 108.09 96.6562 110.115C96.6562 112.14 96.0562 112.965 94.8412 112.965ZM102.832 114.135C104.452 114.135 105.802 113.325 105.802 111.78C105.802 110.325 104.887 109.755 103.027 109.425C101.782 109.155 101.362 108.915 101.362 108.225C101.362 107.475 101.992 107.19 102.742 107.19C103.522 107.19 104.287 107.49 104.962 107.97L105.547 106.965C104.767 106.38 103.762 106.02 102.727 106.02C101.227 106.02 99.9822 106.875 99.9822 108.345C99.9822 109.815 100.957 110.415 102.787 110.745C104.002 111 104.437 111.195 104.437 111.915C104.437 112.71 103.687 112.98 102.847 112.98C101.977 112.98 101.077 112.695 100.357 112.155L99.7722 113.175C100.612 113.805 101.707 114.135 102.832 114.135ZM110.975 112.965C110.27 112.95 109.76 112.785 109.295 112.44V108.405C109.775 107.67 110.45 107.28 111.125 107.28C112.115 107.28 112.85 107.865 112.85 110.01C112.85 112.14 112.1 112.95 110.975 112.965ZM111.185 114.135C112.91 114.135 114.29 112.83 114.29 110.01C114.29 107.28 113.135 106.02 111.59 106.02C110.48 106.02 109.73 106.665 109.25 107.415V106.17H107.84V116.61H109.295V113.655C109.775 113.955 110.39 114.135 111.185 114.135ZM117.159 104.82C117.714 104.82 118.119 104.535 118.119 103.98C118.119 103.38 117.729 103.08 117.159 103.08C116.604 103.08 116.214 103.38 116.214 103.965C116.214 104.535 116.604 104.82 117.159 104.82ZM116.439 114H117.894V106.17H116.439V114ZM123.528 114.12C124.068 114.12 124.638 114.015 125.088 113.82L124.848 112.68C124.428 112.86 124.008 112.935 123.693 112.935C123.003 112.935 122.553 112.47 122.553 111.435V107.34H124.983V106.17H122.553V104.01H121.098V106.17H119.598V107.34H121.098V111.48C121.098 113.22 121.968 114.12 123.528 114.12ZM129.133 113.04C128.248 113.04 127.768 112.59 127.768 111.765C127.768 110.94 128.308 110.58 129.073 110.58H130.888V112.215C130.438 112.695 129.823 113.04 129.133 113.04ZM133.348 113.985V112.875C132.688 113.07 132.283 112.83 132.283 112.125V108.555C132.283 106.965 131.113 106.02 129.508 106.02C128.083 106.02 127.108 106.62 126.583 107.82L127.693 108.405C128.083 107.475 128.548 107.145 129.403 107.145C130.378 107.145 130.873 107.715 130.873 108.69V109.575H128.953C127.378 109.575 126.373 110.43 126.373 111.87C126.373 113.325 127.393 114.135 128.728 114.135C129.748 114.135 130.648 113.655 131.263 112.95C131.428 113.835 132.358 114.21 133.348 113.985ZM135.028 114H136.483V103.26H135.028V114Z" fill="white"/>
<g opacity="0.75">
<path opacity="0.9" d="M37.5 134C51.031 134 62 123.031 62 109.5C62 95.969 51.031 85 37.5 85C23.969 85 13 95.969 13 109.5C13 123.031 23.969 134 37.5 134Z" fill="#170DF8"/>
<path d="M55.7933 104.252C55.7933 103.17 54.9158 102.292 53.8333 102.292H46.9946C45.9121 102.292 45.0346 101.415 45.0346 100.332V93.4933C45.0346 92.4108 44.157 91.5333 43.0746 91.5333H32.2521C31.1696 91.5333 30.2921 92.4108 30.2921 93.4933V100.332C30.2921 101.415 29.4146 102.292 28.3321 102.292H21.4933C20.4108 102.292 19.5333 103.17 19.5333 104.252V115.075C19.5333 116.157 20.4108 117.035 21.4933 117.035H28.3321C29.4146 117.035 30.2921 117.912 30.2921 118.995V125.833C30.2921 126.916 31.1696 127.793 32.2521 127.793H43.0746C44.157 127.793 45.0346 126.916 45.0346 125.833V118.995C45.0346 117.912 45.9121 117.035 46.9946 117.035H53.8333C54.9158 117.035 55.7933 116.157 55.7933 115.075V104.252Z" fill="white"/>
</g>
<path d="M17.41 38.135C20.305 38.135 21.94 36.875 21.94 34.82C21.94 33.095 20.935 32.255 18.61 31.73C16.705 31.31 16.345 30.95 16.345 30.335C16.345 29.645 16.885 29.315 17.875 29.315C18.775 29.315 19.87 29.705 20.77 30.29L21.325 28.475C20.455 27.935 19.105 27.44 17.665 27.44C15.22 27.44 13.825 28.88 13.825 30.815C13.825 32.54 14.89 33.35 17.17 33.83C18.97 34.205 19.42 34.475 19.42 35.15C19.42 35.84 18.895 36.245 17.695 36.245C16.375 36.245 15.295 35.765 14.32 35.12L13.66 37.01C14.665 37.64 15.97 38.135 17.41 38.135ZM26.9744 31.67C27.7544 31.67 28.1744 32.15 28.1894 33.335H25.6394C25.7294 32.06 26.1794 31.67 26.9744 31.67ZM30.4544 36.83L29.2544 35.555C28.6244 36.215 28.1144 36.485 27.2744 36.485C26.3294 36.485 25.8194 36.065 25.6544 34.865H30.5594V33.935C30.5594 31.445 29.2094 30.02 26.9744 30.02C24.8444 30.02 23.2544 31.385 23.2544 34.07C23.2544 36.815 24.8444 38.135 27.1394 38.135C28.4294 38.135 29.6594 37.7 30.4544 36.83ZM34.643 38V32.99C35.063 32.315 35.618 31.925 36.128 31.925C36.638 31.925 36.908 32.3 36.908 33.02V38H39.443V32.69C39.443 31.025 38.573 30.02 37.088 30.02C35.918 30.02 34.958 30.56 34.568 31.49V30.17H32.123V38H34.643ZM44.235 38.135C46.065 38.135 47.55 37.19 47.55 35.48C47.55 33.995 46.59 33.215 44.22 32.96C43.635 32.9 43.275 32.75 43.275 32.33C43.275 31.94 43.665 31.73 44.19 31.73C44.835 31.73 45.66 31.925 46.485 32.345L47.205 30.815C46.425 30.38 45.345 30.02 44.13 30.02C42.39 30.02 40.965 31.07 40.965 32.66C40.965 34.28 42.195 34.97 44.25 35.18C44.94 35.24 45.225 35.39 45.225 35.81C45.225 36.215 44.88 36.44 44.265 36.44C43.41 36.44 42.435 36.2 41.535 35.6L40.8 37.16C41.73 37.745 42.99 38.135 44.235 38.135ZM50.2744 29.27C51.1144 29.27 51.7294 28.805 51.7294 28.055C51.7294 27.305 51.1294 26.81 50.2744 26.81C49.4194 26.81 48.8344 27.305 48.8344 28.055C48.8344 28.805 49.4194 29.27 50.2744 29.27ZM49.0144 38H51.5494V30.17H49.0144V38ZM57.0811 38.135C57.8011 38.135 58.4011 37.955 58.7161 37.82L58.4611 36.11C58.0861 36.26 57.7411 36.335 57.4711 36.335C56.9461 36.335 56.6011 35.975 56.6011 35.06V31.94H58.6411V30.17H56.6011V28.01H54.0811V30.17H52.8661V31.94H54.0811V35.39C54.0811 37.16 55.1611 38.135 57.0811 38.135ZM61.4512 29.27C62.2912 29.27 62.9062 28.805 62.9062 28.055C62.9062 27.305 62.3062 26.81 61.4512 26.81C60.5962 26.81 60.0112 27.305 60.0112 28.055C60.0112 28.805 60.5962 29.27 61.4512 29.27ZM60.1912 38H62.7262V30.17H60.1912V38ZM68.8579 38L71.7829 30.17H69.4129L67.8229 34.88L66.2929 30.17H63.8329L66.7279 38H68.8579ZM76.1199 31.67C76.8999 31.67 77.3199 32.15 77.3349 33.335H74.7849C74.8749 32.06 75.3249 31.67 76.1199 31.67ZM79.5999 36.83L78.3999 35.555C77.7699 36.215 77.2599 36.485 76.4199 36.485C75.4749 36.485 74.9649 36.065 74.7999 34.865H79.7049V33.935C79.7049 31.445 78.3549 30.02 76.1199 30.02C73.9899 30.02 72.3999 31.385 72.3999 34.07C72.3999 36.815 73.9899 38.135 76.2849 38.135C77.5749 38.135 78.8049 37.7 79.5999 36.83ZM14.035 56H20.74V54.125H16.555V45.56H14.035V56ZM25.6288 56.135C27.8488 56.135 29.4388 54.815 29.4388 52.07C29.4388 49.385 27.8488 48.02 25.6438 48.02C23.4088 48.02 21.8188 49.385 21.8188 52.085C21.8188 54.815 23.3938 56.135 25.6288 56.135ZM25.6288 54.365C24.6688 54.365 24.3238 53.705 24.3238 52.085C24.3238 50.495 24.6688 49.79 25.6288 49.79C26.6038 49.79 26.9038 50.495 26.9038 52.1C26.9038 53.705 26.6038 54.365 25.6288 54.365ZM34.4154 56.135C36.4704 56.135 37.4154 55.34 37.8354 53.885L35.5704 53.225C35.4354 54.11 35.1354 54.365 34.4754 54.365C33.5154 54.365 33.2154 53.555 33.2154 52.01C33.2154 50.645 33.5004 49.805 34.4454 49.805C35.0454 49.805 35.4204 50.255 35.5704 51.125L37.8354 50.465C37.5054 49.04 36.2454 48.02 34.4004 48.02C32.0304 48.02 30.7104 49.475 30.7104 52.01C30.7104 54.62 31.9404 56.135 34.4154 56.135ZM42.1529 54.575C41.5229 54.575 41.2079 54.32 41.2079 53.645C41.2079 53.03 41.6429 52.775 42.2129 52.775H43.3529V54.05C43.0229 54.365 42.5879 54.575 42.1529 54.575ZM46.6529 55.955V54.395C46.0229 54.545 45.7829 54.38 45.7829 53.915V50.795C45.7829 48.92 44.2829 48.02 42.3629 48.02C40.7429 48.02 39.6029 48.65 39.0179 49.97L40.7429 50.885C41.1029 50.045 41.4929 49.67 42.2429 49.67C42.9029 49.67 43.3229 50.09 43.3229 50.795V51.44H41.7779C39.9779 51.44 38.8229 52.25 38.8229 53.795C38.8229 55.25 39.7379 56.135 41.2229 56.135C42.3629 56.135 43.2479 55.7 43.8329 55.01C44.1629 56.075 45.4079 56.315 46.6529 55.955ZM51.4122 56.135C52.1322 56.135 52.7322 55.955 53.0472 55.82L52.7922 54.11C52.4172 54.26 52.0722 54.335 51.8022 54.335C51.2772 54.335 50.9322 53.975 50.9322 53.06V49.94H52.9722V48.17H50.9322V46.01H48.4122V48.17H47.1972V49.94H48.4122V53.39C48.4122 55.16 49.4922 56.135 51.4122 56.135ZM55.7822 47.27C56.6222 47.27 57.2372 46.805 57.2372 46.055C57.2372 45.305 56.6372 44.81 55.7822 44.81C54.9272 44.81 54.3422 45.305 54.3422 46.055C54.3422 46.805 54.9272 47.27 55.7822 47.27ZM54.5222 56H57.0572V48.17H54.5222V56ZM62.4989 56.135C64.7189 56.135 66.3089 54.815 66.3089 52.07C66.3089 49.385 64.7189 48.02 62.5139 48.02C60.2789 48.02 58.6889 49.385 58.6889 52.085C58.6889 54.815 60.2639 56.135 62.4989 56.135ZM62.4989 54.365C61.5389 54.365 61.1939 53.705 61.1939 52.085C61.1939 50.495 61.5389 49.79 62.4989 49.79C63.4739 49.79 63.7739 50.495 63.7739 52.1C63.7739 53.705 63.4739 54.365 62.4989 54.365ZM70.3705 56V50.99C70.7905 50.315 71.3455 49.925 71.8555 49.925C72.3655 49.925 72.6355 50.3 72.6355 51.02V56H75.1705V50.69C75.1705 49.025 74.3005 48.02 72.8155 48.02C71.6455 48.02 70.6855 48.56 70.2955 49.49V48.17H67.8505V56H70.3705ZM79.9626 56.135C81.7926 56.135 83.2776 55.19 83.2776 53.48C83.2776 51.995 82.3176 51.215 79.9476 50.96C79.3626 50.9 79.0026 50.75 79.0026 50.33C79.0026 49.94 79.3926 49.73 79.9176 49.73C80.5626 49.73 81.3876 49.925 82.2126 50.345L82.9326 48.815C82.1526 48.38 81.0726 48.02 79.8576 48.02C78.1176 48.02 76.6926 49.07 76.6926 50.66C76.6926 52.28 77.9226 52.97 79.9776 53.18C80.6676 53.24 80.9526 53.39 80.9526 53.81C80.9526 54.215 80.6076 54.44 79.9926 54.44C79.1376 54.44 78.1626 54.2 77.2626 53.6L76.5276 55.16C77.4576 55.745 78.7176 56.135 79.9626 56.135Z" fill="white"/>
<path d="M237.925 47H239.5L236.86 42.335L239.38 39.17H237.85L234.685 43.25V36.26H233.26V47H234.685V44.915L235.885 43.4L237.925 47ZM241.934 37.82C242.489 37.82 242.894 37.535 242.894 36.98C242.894 36.38 242.504 36.08 241.934 36.08C241.379 36.08 240.989 36.38 240.989 36.965C240.989 37.535 241.379 37.82 241.934 37.82ZM241.214 47H242.669V39.17H241.214V47ZM246.668 47V41.63C247.148 40.805 247.853 40.28 248.663 40.28C249.488 40.28 250.013 40.82 250.013 41.915V47H251.468V41.63C251.468 40.04 250.568 39.02 249.128 39.02C248.033 39.02 247.238 39.545 246.653 40.52V39.17H245.213V47H246.668ZM256.854 40.205C257.514 40.205 258.054 40.385 258.534 40.715V44.75C258.039 45.5 257.364 45.89 256.689 45.89C255.714 45.89 254.979 45.29 254.979 43.16C254.979 41.03 255.729 40.205 256.854 40.205ZM256.629 39.02C254.919 39.02 253.524 40.34 253.524 43.16C253.524 45.89 254.679 47.135 256.224 47.135C257.334 47.135 258.114 46.49 258.564 45.755V47H259.974V36.26H258.534V39.515C257.994 39.215 257.394 39.02 256.629 39.02ZM265.438 40.145C266.413 40.145 267.133 40.76 267.148 42.365H263.563C263.698 40.79 264.328 40.145 265.438 40.145ZM268.453 45.89L267.598 45.05C267.088 45.725 266.473 45.995 265.663 45.995C264.343 45.995 263.638 45.185 263.548 43.445H268.573V42.62C268.573 40.295 267.238 39.02 265.468 39.02C263.443 39.02 262.108 40.355 262.108 43.055C262.108 45.725 263.488 47.135 265.633 47.135C266.713 47.135 267.823 46.73 268.453 45.89ZM272.156 47V41.495C272.651 40.73 273.401 40.34 274.181 40.34C274.481 40.34 274.781 40.4 274.991 40.475L275.231 39.2C275.006 39.095 274.676 39.035 274.376 39.035C273.356 39.035 272.636 39.635 272.141 40.505V39.17H270.701V47H272.156ZM279.514 42.98C278.704 42.98 278.029 42.575 278.029 41.555C278.029 40.55 278.704 40.145 279.514 40.145C280.339 40.145 281.014 40.55 281.014 41.555C281.014 42.59 280.339 42.98 279.514 42.98ZM283.429 47.21C283.429 45.965 282.514 45.335 281.104 45.335H278.734C277.969 45.335 277.609 45.08 277.609 44.6C277.609 44.27 277.759 43.985 278.254 43.73C278.614 43.88 279.034 43.97 279.484 43.97C281.164 43.97 282.319 42.935 282.319 41.525C282.319 40.94 282.124 40.415 281.749 39.995C282.184 40.115 282.649 40.175 283.219 40.22V39.17H280.189C279.964 39.125 279.739 39.11 279.499 39.11C277.909 39.11 276.709 40.115 276.709 41.525C276.709 42.26 277.039 42.89 277.579 43.325C276.889 43.61 276.439 44.24 276.439 44.975C276.439 45.59 276.784 46.07 277.399 46.34C276.589 46.73 276.154 47.27 276.154 47.99C276.154 48.98 277.084 49.82 279.439 49.82C281.884 49.82 283.429 48.785 283.429 47.21ZM279.649 48.77C277.909 48.77 277.474 48.29 277.474 47.69C277.474 47.27 277.699 46.91 278.224 46.55C278.359 46.565 278.494 46.58 278.659 46.58H281.029C281.689 46.58 282.109 46.805 282.109 47.405C282.109 48.23 281.209 48.77 279.649 48.77ZM287.512 46.04C286.627 46.04 286.147 45.59 286.147 44.765C286.147 43.94 286.687 43.58 287.452 43.58H289.267V45.215C288.817 45.695 288.202 46.04 287.512 46.04ZM291.727 46.985V45.875C291.067 46.07 290.662 45.83 290.662 45.125V41.555C290.662 39.965 289.492 39.02 287.887 39.02C286.462 39.02 285.487 39.62 284.962 40.82L286.072 41.405C286.462 40.475 286.927 40.145 287.782 40.145C288.757 40.145 289.252 40.715 289.252 41.69V42.575H287.332C285.757 42.575 284.752 43.43 284.752 44.87C284.752 46.325 285.772 47.135 287.107 47.135C288.127 47.135 289.027 46.655 289.642 45.95C289.807 46.835 290.737 47.21 291.727 46.985ZM294.847 47V41.495C295.342 40.73 296.092 40.34 296.872 40.34C297.172 40.34 297.472 40.4 297.682 40.475L297.922 39.2C297.697 39.095 297.367 39.035 297.067 39.035C296.047 39.035 295.327 39.635 294.832 40.505V39.17H293.392V47H294.847ZM302.103 40.205C302.763 40.205 303.303 40.385 303.783 40.715V44.75C303.288 45.5 302.613 45.89 301.938 45.89C300.963 45.89 300.228 45.29 300.228 43.16C300.228 41.03 300.978 40.205 302.103 40.205ZM301.878 39.02C300.168 39.02 298.773 40.34 298.773 43.16C298.773 45.89 299.928 47.135 301.473 47.135C302.583 47.135 303.363 46.49 303.813 45.755V47H305.223V36.26H303.783V39.515C303.243 39.215 302.643 39.02 301.878 39.02ZM310.687 40.145C311.662 40.145 312.382 40.76 312.397 42.365H308.812C308.947 40.79 309.577 40.145 310.687 40.145ZM313.702 45.89L312.847 45.05C312.337 45.725 311.722 45.995 310.912 45.995C309.592 45.995 308.887 45.185 308.797 43.445H313.822V42.62C313.822 40.295 312.487 39.02 310.717 39.02C308.692 39.02 307.357 40.355 307.357 43.055C307.357 45.725 308.737 47.135 310.882 47.135C311.962 47.135 313.072 46.73 313.702 45.89ZM317.405 47V41.63C317.885 40.805 318.59 40.28 319.4 40.28C320.225 40.28 320.75 40.82 320.75 41.915V47H322.205V41.63C322.205 40.04 321.305 39.02 319.865 39.02C318.77 39.02 317.975 39.545 317.39 40.52V39.17H315.95V47H317.405Z" fill="white"/>
<g opacity="0.9">
<path opacity="0.8" d="M187.5 66C201.031 66 212 55.031 212 41.5C212 27.969 201.031 17 187.5 17C173.969 17 163 27.969 163 41.5C163 55.031 173.969 66 187.5 66Z" fill="#170DF8"/>
</g>
<path fill-rule="evenodd" clip-rule="evenodd" d="M200.996 30.9671C201.191 30.7393 201.34 30.4751 201.433 30.1898C201.527 29.9045 201.563 29.6036 201.54 29.3042C201.517 29.0049 201.436 28.713 201.3 28.4453C201.164 28.1775 200.977 27.9391 200.749 27.7437C200.521 27.5482 200.257 27.3996 199.972 27.3062C199.686 27.2129 199.385 27.1766 199.086 27.1996C198.787 27.2225 198.495 27.3042 198.227 27.4399C197.959 27.5756 197.721 27.7628 197.526 27.9907L192.131 34.3141C191.85 34.6473 191.498 34.9144 191.102 35.0964C190.705 35.2783 190.274 35.3707 189.837 35.367H185.126C184.69 35.3707 184.259 35.2783 183.863 35.0963C183.467 34.9143 183.116 34.6472 182.835 34.3141L177.441 27.9907C177.041 27.5475 176.484 27.2779 175.888 27.2396C175.293 27.2013 174.706 27.3971 174.253 27.7855C173.8 28.1738 173.516 28.7238 173.463 29.3182C173.409 29.9126 173.59 30.5043 173.967 30.9671L181.717 39.949L181.779 40.0108L178.867 48.8197C178.785 49.0655 178.761 49.3272 178.8 49.5836C178.838 49.84 178.937 50.0836 179.087 50.2945C179.238 50.5055 179.436 50.6777 179.666 50.797C179.897 50.9163 180.152 50.9794 180.411 50.9811H181.773L180.982 57.9961C180.932 58.5847 181.111 59.1699 181.483 59.6286C181.856 60.0873 182.391 60.3839 182.977 60.4559C183.564 60.5278 184.155 60.3697 184.627 60.0146C185.099 59.6595 185.415 59.1352 185.509 58.5519L186.314 51.2991C186.324 51.2259 186.361 51.1592 186.419 51.1131C186.476 51.0669 186.55 51.0451 186.623 51.0521H188.362C188.485 51.0521 188.67 51.1756 188.67 51.2991L189.476 58.5519C189.534 59.1015 189.795 59.6098 190.208 59.9771C190.621 60.3443 191.156 60.5441 191.708 60.5373H191.955C192.254 60.5042 192.543 60.4117 192.805 60.2652C193.067 60.1188 193.298 59.9213 193.482 59.6845C193.667 59.4477 193.802 59.1763 193.881 58.8864C193.959 58.5964 193.978 58.2937 193.938 57.9961L193.197 50.9903H194.558C194.818 50.9887 195.073 50.9256 195.303 50.8063C195.533 50.6869 195.731 50.5147 195.882 50.3038C196.033 50.0929 196.131 49.8492 196.169 49.5929C196.208 49.3365 196.185 49.0747 196.102 48.829L193.187 40.0169L193.249 39.9552L200.996 30.9671Z" fill="white"/>
<path fill-rule="evenodd" clip-rule="evenodd" d="M181.967 27.7444C181.967 26.653 182.291 25.5861 182.897 24.6787C183.504 23.7712 184.366 23.064 185.374 22.6465C186.382 22.229 187.492 22.1199 188.562 22.3331C189.633 22.5462 190.616 23.072 191.387 23.844C192.159 24.6159 192.684 25.5993 192.897 26.6699C193.109 27.7404 193 28.8499 192.582 29.858C192.163 30.8662 191.456 31.7277 190.548 32.3336C189.64 32.9395 188.573 33.2626 187.482 33.262C186.019 33.2611 184.616 32.6795 183.582 31.6448C182.548 30.6102 181.967 29.2072 181.967 27.7444Z" fill="white"/>
<path d="M236.395 113.965C235.69 113.95 235.18 113.785 234.715 113.44V109.405C235.195 108.67 235.87 108.28 236.545 108.28C237.535 108.28 238.27 108.865 238.27 111.01C238.27 113.14 237.52 113.95 236.395 113.965ZM236.605 115.135C238.33 115.135 239.71 113.83 239.71 111.01C239.71 108.28 238.555 107.02 237.01 107.02C235.9 107.02 235.15 107.665 234.67 108.415V107.17H233.26V117.61H234.715V114.655C235.195 114.955 235.81 115.135 236.605 115.135ZM241.859 115H243.314V104.26H241.859V115ZM248.078 114.04C247.193 114.04 246.713 113.59 246.713 112.765C246.713 111.94 247.253 111.58 248.018 111.58H249.833V113.215C249.383 113.695 248.768 114.04 248.078 114.04ZM252.293 114.985V113.875C251.633 114.07 251.228 113.83 251.228 113.125V109.555C251.228 107.965 250.058 107.02 248.453 107.02C247.028 107.02 246.053 107.62 245.528 108.82L246.638 109.405C247.028 108.475 247.493 108.145 248.348 108.145C249.323 108.145 249.818 108.715 249.818 109.69V110.575H247.898C246.323 110.575 245.318 111.43 245.318 112.87C245.318 114.325 246.338 115.135 247.673 115.135C248.693 115.135 249.593 114.655 250.208 113.95C250.373 114.835 251.303 115.21 252.293 114.985ZM254.44 117.715C255.565 117.715 256.39 117.115 256.93 115.57L259.87 107.17H258.43L256.54 113.2L254.59 107.17H253.12L255.85 114.985C255.58 115.915 255.25 116.545 254.38 116.545C254.125 116.545 253.75 116.5 253.42 116.395L253.255 117.58C253.66 117.67 254.08 117.715 254.44 117.715ZM264.456 110.98C263.646 110.98 262.971 110.575 262.971 109.555C262.971 108.55 263.646 108.145 264.456 108.145C265.281 108.145 265.956 108.55 265.956 109.555C265.956 110.59 265.281 110.98 264.456 110.98ZM268.371 115.21C268.371 113.965 267.456 113.335 266.046 113.335H263.676C262.911 113.335 262.551 113.08 262.551 112.6C262.551 112.27 262.701 111.985 263.196 111.73C263.556 111.88 263.976 111.97 264.426 111.97C266.106 111.97 267.261 110.935 267.261 109.525C267.261 108.94 267.066 108.415 266.691 107.995C267.126 108.115 267.591 108.175 268.161 108.22V107.17H265.131C264.906 107.125 264.681 107.11 264.441 107.11C262.851 107.11 261.651 108.115 261.651 109.525C261.651 110.26 261.981 110.89 262.521 111.325C261.831 111.61 261.381 112.24 261.381 112.975C261.381 113.59 261.726 114.07 262.341 114.34C261.531 114.73 261.096 115.27 261.096 115.99C261.096 116.98 262.026 117.82 264.381 117.82C266.826 117.82 268.371 116.785 268.371 115.21ZM264.591 116.77C262.851 116.77 262.416 116.29 262.416 115.69C262.416 115.27 262.641 114.91 263.166 114.55C263.301 114.565 263.436 114.58 263.601 114.58H265.971C266.631 114.58 267.051 114.805 267.051 115.405C267.051 116.23 266.151 116.77 264.591 116.77ZM271.673 115V109.495C272.168 108.73 272.918 108.34 273.698 108.34C273.998 108.34 274.298 108.4 274.508 108.475L274.748 107.2C274.523 107.095 274.193 107.035 273.893 107.035C272.873 107.035 272.153 107.635 271.658 108.505V107.17H270.218V115H271.673ZM278.869 115.135C280.834 115.135 282.154 113.845 282.154 111.1C282.154 108.355 280.804 107.02 278.884 107.02C276.934 107.02 275.599 108.355 275.599 111.1C275.599 113.845 276.919 115.135 278.869 115.135ZM278.869 113.965C277.669 113.965 277.054 113.14 277.054 111.1C277.054 109.09 277.669 108.205 278.869 108.205C280.084 108.205 280.684 109.09 280.684 111.115C280.684 113.14 280.084 113.965 278.869 113.965ZM289.006 107.17V112.525C288.541 113.365 287.821 113.89 287.011 113.89C286.186 113.89 285.661 113.35 285.661 112.255V107.17H284.206V112.525C284.206 114.13 285.106 115.135 286.546 115.135C287.656 115.135 288.436 114.625 289.021 113.65V115H290.461V107.17H289.006ZM294.437 115V109.63C294.917 108.805 295.622 108.28 296.432 108.28C297.257 108.28 297.782 108.82 297.782 109.915V115H299.237V109.63C299.237 108.04 298.337 107.02 296.897 107.02C295.802 107.02 295.007 107.545 294.422 108.52V107.17H292.982V115H294.437ZM304.623 108.205C305.283 108.205 305.823 108.385 306.303 108.715V112.75C305.808 113.5 305.133 113.89 304.458 113.89C303.483 113.89 302.748 113.29 302.748 111.16C302.748 109.03 303.498 108.205 304.623 108.205ZM304.398 107.02C302.688 107.02 301.293 108.34 301.293 111.16C301.293 113.89 302.448 115.135 303.993 115.135C305.103 115.135 305.883 114.49 306.333 113.755V115H307.743V104.26H306.303V107.515C305.763 107.215 305.163 107.02 304.398 107.02Z" fill="white"/>
<g opacity="0.9">
<path opacity="0.8" d="M187.5 134C201.031 134 212 123.031 212 109.5C212 95.969 201.031 85 187.5 85C173.969 85 163 95.969 163 109.5C163 123.031 173.969 134 187.5 134Z" fill="#170DF8"/>
</g>
<path d="M200.276 101.413C200.45 100.904 200.289 100.341 199.871 100.003L188.68 90.938C188.395 90.7071 188.042 90.5769 187.675 90.5676C187.308 90.5584 186.949 90.6705 186.653 90.8867L173.855 100.221C173.421 100.537 173.241 101.098 173.409 101.608C173.578 102.119 174.058 102.463 174.597 102.457L176.141 102.441C177.81 102.424 179.172 103.772 179.172 105.441V125.545V126.966C179.172 127.591 179.679 128.098 180.303 128.098C180.928 128.098 181.434 127.591 181.434 126.966V126.823C181.434 126.118 182.007 125.547 182.713 125.549L192.363 125.578C193.068 125.581 193.639 126.153 193.639 126.858V127.008C193.639 127.632 194.145 128.138 194.769 128.138C195.394 128.138 195.9 127.63 195.899 127.005L195.85 104.718C195.847 103.381 196.924 102.293 198.261 102.283L199.075 102.277C199.618 102.272 200.099 101.926 200.276 101.413ZM192.274 115.344C193.014 115.344 193.613 115.943 193.613 116.683C193.613 117.422 193.014 118.022 192.274 118.022H182.765C182.026 118.022 181.426 117.422 181.426 116.683C181.426 115.943 182.026 115.344 182.765 115.344H192.274ZM184.432 113.057C182.775 113.057 181.432 111.714 181.432 110.057V105.598C181.432 103.942 182.775 102.598 184.432 102.598H190.597C192.252 102.598 193.594 103.938 193.597 105.592L193.607 110.051C193.61 111.71 192.266 113.057 190.607 113.057H184.432ZM182.898 123.264C182.087 123.261 181.432 122.603 181.432 121.792C181.432 120.979 182.091 120.32 182.904 120.32H192.134C192.957 120.32 193.625 120.987 193.625 121.811C193.625 122.636 192.954 123.304 192.128 123.301L182.898 123.264Z" fill="white"/>
</svg>
