<svg width="467" height="47" viewBox="0 0 467 47" fill="none" xmlns="http://www.w3.org/2000/svg">
<g opacity="0.52">
<rect width="467" height="47" rx="5" fill="black"/>
</g>
<rect x="11" y="18" width="50" height="10" fill="#E66A9B"/>
<path d="M85.35 28.12C85.89 28.12 86.46 28.015 86.91 27.82L86.67 26.68C86.25 26.86 85.83 26.935 85.515 26.935C84.825 26.935 84.375 26.47 84.375 25.435V21.34H86.805V20.17H84.375V18.01H82.92V20.17H81.42V21.34H82.92V25.48C82.92 27.22 83.79 28.12 85.35 28.12ZM90.175 28V22.495C90.67 21.73 91.42 21.34 92.2 21.34C92.5 21.34 92.8 21.4 93.01 21.475L93.25 20.2C93.025 20.095 92.695 20.035 92.395 20.035C91.375 20.035 90.655 20.635 90.16 21.505V20.17H88.72V28H90.175ZM96.7264 27.04C95.8414 27.04 95.3614 26.59 95.3614 25.765C95.3614 24.94 95.9014 24.58 96.6664 24.58H98.4814V26.215C98.0314 26.695 97.4164 27.04 96.7264 27.04ZM100.941 27.985V26.875C100.281 27.07 99.8764 26.83 99.8764 26.125V22.555C99.8764 20.965 98.7064 20.02 97.1014 20.02C95.6764 20.02 94.7014 20.62 94.1764 21.82L95.2864 22.405C95.6764 21.475 96.1414 21.145 96.9964 21.145C97.9714 21.145 98.4664 21.715 98.4664 22.69V23.575H96.5464C94.9714 23.575 93.9664 24.43 93.9664 25.87C93.9664 27.325 94.9864 28.135 96.3214 28.135C97.3414 28.135 98.2414 27.655 98.8564 26.95C99.0214 27.835 99.9514 28.21 100.941 27.985ZM103.285 28H104.755V21.34H106.9V20.17H104.755V19.525C104.755 18.22 105.85 18.265 106.765 18.565L107.02 17.5C105.205 16.885 103.285 17.56 103.285 19.495V20.17H101.755V21.34H103.285V28ZM109.569 28H111.039V21.34H113.184V20.17H111.039V19.525C111.039 18.22 112.134 18.265 113.049 18.565L113.304 17.5C111.489 16.885 109.569 17.56 109.569 19.495V20.17H108.039V21.34H109.569V28ZM115.764 18.82C116.319 18.82 116.724 18.535 116.724 17.98C116.724 17.38 116.334 17.08 115.764 17.08C115.209 17.08 114.819 17.38 114.819 17.965C114.819 18.535 115.209 18.82 115.764 18.82ZM115.044 28H116.499V20.17H115.044V28ZM121.937 28.135C123.467 28.135 124.472 27.415 124.922 25.96L123.587 25.54C123.302 26.635 122.777 26.965 121.937 26.965C120.722 26.965 120.107 26.11 120.107 24.07C120.107 22.075 120.722 21.205 121.937 21.205C122.747 21.205 123.302 21.58 123.587 22.66L124.922 22.255C124.487 20.785 123.422 20.02 121.937 20.02C119.912 20.02 118.652 21.385 118.652 24.07C118.652 26.8 119.897 28.135 121.937 28.135ZM133.95 21.205C134.61 21.205 135.15 21.385 135.63 21.715V25.75C135.135 26.5 134.46 26.89 133.785 26.89C132.81 26.89 132.075 26.29 132.075 24.16C132.075 22.03 132.825 21.205 133.95 21.205ZM133.725 20.02C132.015 20.02 130.62 21.34 130.62 24.16C130.62 26.89 131.775 28.135 133.32 28.135C134.43 28.135 135.21 27.49 135.66 26.755V28H137.07V17.26H135.63V20.515C135.09 20.215 134.49 20.02 133.725 20.02ZM142.534 21.145C143.509 21.145 144.229 21.76 144.244 23.365H140.659C140.794 21.79 141.424 21.145 142.534 21.145ZM145.549 26.89L144.694 26.05C144.184 26.725 143.569 26.995 142.759 26.995C141.439 26.995 140.734 26.185 140.644 24.445H145.669V23.62C145.669 21.295 144.334 20.02 142.564 20.02C140.539 20.02 139.204 21.355 139.204 24.055C139.204 26.725 140.584 28.135 142.729 28.135C143.809 28.135 144.919 27.73 145.549 26.89ZM149.252 28V22.63C149.732 21.805 150.437 21.28 151.247 21.28C152.072 21.28 152.597 21.82 152.597 22.915V28H154.052V22.63C154.052 21.04 153.152 20.02 151.712 20.02C150.617 20.02 149.822 20.545 149.237 21.52V20.17H147.797V28H149.252ZM159.078 28.135C160.698 28.135 162.048 27.325 162.048 25.78C162.048 24.325 161.133 23.755 159.273 23.425C158.028 23.155 157.608 22.915 157.608 22.225C157.608 21.475 158.238 21.19 158.988 21.19C159.768 21.19 160.533 21.49 161.208 21.97L161.793 20.965C161.013 20.38 160.008 20.02 158.973 20.02C157.473 20.02 156.228 20.875 156.228 22.345C156.228 23.815 157.203 24.415 159.033 24.745C160.248 25 160.683 25.195 160.683 25.915C160.683 26.71 159.933 26.98 159.093 26.98C158.223 26.98 157.323 26.695 156.603 26.155L156.018 27.175C156.858 27.805 157.953 28.135 159.078 28.135ZM164.821 18.82C165.376 18.82 165.781 18.535 165.781 17.98C165.781 17.38 165.391 17.08 164.821 17.08C164.266 17.08 163.876 17.38 163.876 17.965C163.876 18.535 164.266 18.82 164.821 18.82ZM164.101 28H165.556V20.17H164.101V28ZM171.19 28.12C171.73 28.12 172.3 28.015 172.75 27.82L172.51 26.68C172.09 26.86 171.67 26.935 171.355 26.935C170.665 26.935 170.215 26.47 170.215 25.435V21.34H172.645V20.17H170.215V18.01H168.76V20.17H167.26V21.34H168.76V25.48C168.76 27.22 169.63 28.12 171.19 28.12ZM175.115 30.715C176.24 30.715 177.065 30.115 177.605 28.57L180.545 20.17H179.105L177.215 26.2L175.265 20.17H173.795L176.525 27.985C176.255 28.915 175.925 29.545 175.055 29.545C174.8 29.545 174.425 29.5 174.095 29.395L173.93 30.58C174.335 30.67 174.755 30.715 175.115 30.715Z" fill="white"/>
<rect x="255" y="18" width="50" height="10" fill="#1252D6"/>
<path d="M328.84 28.135C330.46 28.135 331.81 27.325 331.81 25.78C331.81 24.325 330.895 23.755 329.035 23.425C327.79 23.155 327.37 22.915 327.37 22.225C327.37 21.475 328 21.19 328.75 21.19C329.53 21.19 330.295 21.49 330.97 21.97L331.555 20.965C330.775 20.38 329.77 20.02 328.735 20.02C327.235 20.02 325.99 20.875 325.99 22.345C325.99 23.815 326.965 24.415 328.795 24.745C330.01 25 330.445 25.195 330.445 25.915C330.445 26.71 329.695 26.98 328.855 26.98C327.985 26.98 327.085 26.695 326.365 26.155L325.78 27.175C326.62 27.805 327.715 28.135 328.84 28.135ZM336.788 21.145C337.763 21.145 338.483 21.76 338.498 23.365H334.913C335.048 21.79 335.678 21.145 336.788 21.145ZM339.803 26.89L338.948 26.05C338.438 26.725 337.823 26.995 337.013 26.995C335.693 26.995 334.988 26.185 334.898 24.445H339.923V23.62C339.923 21.295 338.588 20.02 336.818 20.02C334.793 20.02 333.458 21.355 333.458 24.055C333.458 26.725 334.838 28.135 336.983 28.135C338.063 28.135 339.173 27.73 339.803 26.89ZM343.506 28V22.63C343.986 21.805 344.691 21.28 345.501 21.28C346.326 21.28 346.851 21.82 346.851 22.915V28H348.306V22.63C348.306 21.04 347.406 20.02 345.966 20.02C344.871 20.02 344.076 20.545 343.491 21.52V20.17H342.051V28H343.506ZM353.332 28.135C354.952 28.135 356.302 27.325 356.302 25.78C356.302 24.325 355.387 23.755 353.527 23.425C352.282 23.155 351.862 22.915 351.862 22.225C351.862 21.475 352.492 21.19 353.242 21.19C354.022 21.19 354.787 21.49 355.462 21.97L356.047 20.965C355.267 20.38 354.262 20.02 353.227 20.02C351.727 20.02 350.482 20.875 350.482 22.345C350.482 23.815 351.457 24.415 353.287 24.745C354.502 25 354.937 25.195 354.937 25.915C354.937 26.71 354.187 26.98 353.347 26.98C352.477 26.98 351.577 26.695 350.857 26.155L350.272 27.175C351.112 27.805 352.207 28.135 353.332 28.135ZM359.075 18.82C359.63 18.82 360.035 18.535 360.035 17.98C360.035 17.38 359.645 17.08 359.075 17.08C358.52 17.08 358.13 17.38 358.13 17.965C358.13 18.535 358.52 18.82 359.075 18.82ZM358.355 28H359.81V20.17H358.355V28ZM365.444 28.12C365.984 28.12 366.554 28.015 367.004 27.82L366.764 26.68C366.344 26.86 365.924 26.935 365.609 26.935C364.919 26.935 364.469 26.47 364.469 25.435V21.34H366.899V20.17H364.469V18.01H363.014V20.17H361.514V21.34H363.014V25.48C363.014 27.22 363.884 28.12 365.444 28.12ZM369.549 18.82C370.104 18.82 370.509 18.535 370.509 17.98C370.509 17.38 370.119 17.08 369.549 17.08C368.994 17.08 368.604 17.38 368.604 17.965C368.604 18.535 368.994 18.82 369.549 18.82ZM368.829 28H370.284V20.17H368.829V28ZM376.067 28L378.797 20.17H377.357L375.392 26.245L373.442 20.17H371.957L374.672 28H376.067ZM383.238 21.145C384.213 21.145 384.933 21.76 384.948 23.365H381.363C381.498 21.79 382.128 21.145 383.238 21.145ZM386.253 26.89L385.398 26.05C384.888 26.725 384.273 26.995 383.463 26.995C382.143 26.995 381.438 26.185 381.348 24.445H386.373V23.62C386.373 21.295 385.038 20.02 383.268 20.02C381.243 20.02 379.908 21.355 379.908 24.055C379.908 26.725 381.288 28.135 383.433 28.135C384.513 28.135 385.623 27.73 386.253 26.89ZM392.632 28H394.087V17.26H392.632V28ZM399.496 28.135C401.461 28.135 402.781 26.845 402.781 24.1C402.781 21.355 401.431 20.02 399.511 20.02C397.561 20.02 396.226 21.355 396.226 24.1C396.226 26.845 397.546 28.135 399.496 28.135ZM399.496 26.965C398.296 26.965 397.681 26.14 397.681 24.1C397.681 22.09 398.296 21.205 399.496 21.205C400.711 21.205 401.311 22.09 401.311 24.115C401.311 26.14 400.711 26.965 399.496 26.965ZM407.802 28.135C409.332 28.135 410.337 27.415 410.787 25.96L409.452 25.54C409.167 26.635 408.642 26.965 407.802 26.965C406.587 26.965 405.972 26.11 405.972 24.07C405.972 22.075 406.587 21.205 407.802 21.205C408.612 21.205 409.167 21.58 409.452 22.66L410.787 22.255C410.352 20.785 409.287 20.02 407.802 20.02C405.777 20.02 404.517 21.385 404.517 24.07C404.517 26.8 405.762 28.135 407.802 28.135ZM414.994 27.04C414.109 27.04 413.629 26.59 413.629 25.765C413.629 24.94 414.169 24.58 414.934 24.58H416.749V26.215C416.299 26.695 415.684 27.04 414.994 27.04ZM419.209 27.985V26.875C418.549 27.07 418.144 26.83 418.144 26.125V22.555C418.144 20.965 416.974 20.02 415.369 20.02C413.944 20.02 412.969 20.62 412.444 21.82L413.554 22.405C413.944 21.475 414.409 21.145 415.264 21.145C416.239 21.145 416.734 21.715 416.734 22.69V23.575H414.814C413.239 23.575 412.234 24.43 412.234 25.87C412.234 27.325 413.254 28.135 414.589 28.135C415.609 28.135 416.509 27.655 417.124 26.95C417.289 27.835 418.219 28.21 419.209 27.985ZM423.891 28.12C424.431 28.12 425.001 28.015 425.451 27.82L425.211 26.68C424.791 26.86 424.371 26.935 424.056 26.935C423.366 26.935 422.916 26.47 422.916 25.435V21.34H425.346V20.17H422.916V18.01H421.461V20.17H419.961V21.34H421.461V25.48C421.461 27.22 422.331 28.12 423.891 28.12ZM427.996 18.82C428.551 18.82 428.956 18.535 428.956 17.98C428.956 17.38 428.566 17.08 427.996 17.08C427.441 17.08 427.051 17.38 427.051 17.965C427.051 18.535 427.441 18.82 427.996 18.82ZM427.276 28H428.731V20.17H427.276V28ZM434.155 28.135C436.12 28.135 437.44 26.845 437.44 24.1C437.44 21.355 436.09 20.02 434.17 20.02C432.22 20.02 430.885 21.355 430.885 24.1C430.885 26.845 432.205 28.135 434.155 28.135ZM434.155 26.965C432.955 26.965 432.34 26.14 432.34 24.1C432.34 22.09 432.955 21.205 434.155 21.205C435.37 21.205 435.97 22.09 435.97 24.115C435.97 26.14 435.37 26.965 434.155 26.965ZM441.021 28V22.63C441.501 21.805 442.206 21.28 443.016 21.28C443.841 21.28 444.366 21.82 444.366 22.915V28H445.821V22.63C445.821 21.04 444.921 20.02 443.481 20.02C442.386 20.02 441.591 20.545 441.006 21.52V20.17H439.566V28H441.021ZM450.847 28.135C452.467 28.135 453.817 27.325 453.817 25.78C453.817 24.325 452.902 23.755 451.042 23.425C449.797 23.155 449.377 22.915 449.377 22.225C449.377 21.475 450.007 21.19 450.757 21.19C451.537 21.19 452.302 21.49 452.977 21.97L453.562 20.965C452.782 20.38 451.777 20.02 450.742 20.02C449.242 20.02 447.997 20.875 447.997 22.345C447.997 23.815 448.972 24.415 450.802 24.745C452.017 25 452.452 25.195 452.452 25.915C452.452 26.71 451.702 26.98 450.862 26.98C449.992 26.98 449.092 26.695 448.372 26.155L447.787 27.175C448.627 27.805 449.722 28.135 450.847 28.135Z" fill="white"/>
</svg>
