<svg width="365" height="203" fill="none" xmlns="http://www.w3.org/2000/svg"><path fill="#E0E0E0" d="M0 0h348v203H0z"/><path fill="#828282" d="M27 30h100v10H27z"/><path d="M149.34 41v-7.46c.68-1.18 1.7-1.78 2.76-1.78.42 0 .82.1 1.1.2l.34-1.34c-.32-.16-.8-.24-1.24-.24-1.38 0-2.28.8-2.96 1.9v-1.72h-1.52V41h1.52zm9.58.18c2.48 0 4.18-1.7 4.18-5.36 0-3.68-1.72-5.46-4.16-5.46-2.52 0-4.18 1.78-4.18 5.44 0 3.68 1.66 5.38 4.16 5.38zm0-1.34c-1.7 0-2.62-1.16-2.62-4.04 0-2.82.92-4.08 2.62-4.08 1.7 0 2.62 1.26 2.62 4.1 0 2.86-.92 4.02-2.62 4.02zm9.94.06c-1.26 0-1.98-.68-1.98-1.84 0-1.18.78-1.68 1.86-1.68h2.66v2.3c-.62.7-1.52 1.22-2.54 1.22zm5.52 1.1v-1.32c-.9.28-1.5-.06-1.5-1.08v-4.94c0-2.04-1.42-3.3-3.46-3.3-1.82 0-3.06.78-3.72 2.34l1.24.66c.52-1.28 1.18-1.7 2.34-1.7 1.44 0 2.12.82 2.12 2.24v1.24h-2.7c-2.02 0-3.3 1.18-3.3 3.06 0 1.92 1.4 2.98 3.12 2.98 1.3 0 2.52-.66 3.34-1.6.16 1.12 1.28 1.68 2.52 1.42zm5.968-9.28c.92.02 1.7.24 2.38.72v5.62c-.66 1.1-1.64 1.7-2.62 1.7-1.4 0-2.48-.84-2.48-3.86 0-3.08 1.2-4.16 2.72-4.18zm-.22-1.36c-2.12 0-4.02 1.62-4.02 5.54 0 3.66 1.54 5.28 3.56 5.28 1.42 0 2.46-.86 3.1-1.8V41h1.48V26.68h-1.52v4.38c-.7-.42-1.54-.7-2.6-.7zm11.011 10.82c2.08 0 3.84-1.04 3.84-3.02 0-1.94-1.22-2.6-3.5-3.1-1.9-.42-2.5-.78-2.5-1.8 0-1.12.96-1.54 2.02-1.54 1.08 0 2.1.44 2.94 1.1l.72-1.16c-1.04-.82-2.34-1.3-3.66-1.3-1.92 0-3.48 1.06-3.48 2.98 0 1.9 1.18 2.66 3.52 3.16 1.84.4 2.46.68 2.46 1.78 0 1.18-1.16 1.56-2.36 1.56-1.16 0-2.32-.38-3.22-1.1l-.72 1.16c1.1.86 2.48 1.28 3.94 1.28zm6.038 3.3h1.48l6.38-17.4h-1.46l-6.4 17.4zm14.02-3.3c2.08 0 3.84-1.04 3.84-3.02 0-1.94-1.22-2.6-3.5-3.1-1.9-.42-2.5-.78-2.5-1.8 0-1.12.96-1.54 2.02-1.54 1.08 0 2.1.44 2.94 1.1l.72-1.16c-1.04-.82-2.34-1.3-3.66-1.3-1.92 0-3.48 1.06-3.48 2.98 0 1.9 1.18 2.66 3.52 3.16 1.84.4 2.46.68 2.46 1.78 0 1.18-1.16 1.56-2.36 1.56-1.16 0-2.32-.38-3.22-1.1l-.72 1.16c1.1.86 2.48 1.28 3.94 1.28zm10.699-.02c.68 0 1.4-.12 2.06-.4l-.32-1.3c-.56.24-1.16.34-1.6.34-.98 0-1.64-.64-1.64-2.08V31.9h3.42v-1.34h-3.42v-2.88h-1.52v2.88h-2.1v1.34h2.1v5.78c0 2.3 1.08 3.48 3.02 3.48zm6.155-.16v-7.46c.68-1.18 1.7-1.78 2.76-1.78.42 0 .82.1 1.1.2l.34-1.34c-.32-.16-.8-.24-1.24-.24-1.38 0-2.28.8-2.96 1.9v-1.72h-1.52V41h1.52zm9.7-9.34c1.38 0 2.44.86 2.46 3.18h-5.18c.18-2.22 1.1-3.18 2.72-3.18zm3.82 7.88l-.98-.96c-.66.9-1.52 1.26-2.58 1.26-1.9 0-2.92-1.24-3-3.74h6.74v-1.04c0-3.06-1.76-4.7-3.98-4.7-2.62 0-4.3 1.76-4.3 5.38 0 3.52 1.74 5.44 4.54 5.44 1.38 0 2.82-.52 3.56-1.64zm6.981-7.88c1.38 0 2.44.86 2.46 3.18h-5.18c.18-2.22 1.1-3.18 2.72-3.18zm3.82 7.88l-.98-.96c-.66.9-1.52 1.26-2.58 1.26-1.9 0-2.92-1.24-3-3.74h6.74v-1.04c0-3.06-1.76-4.7-3.98-4.7-2.62 0-4.3 1.76-4.3 5.38 0 3.52 1.74 5.44 4.54 5.44 1.38 0 2.82-.52 3.56-1.64zm7.161 1.62c.68 0 1.4-.12 2.06-.4l-.32-1.3c-.56.24-1.16.34-1.6.34-.98 0-1.64-.64-1.64-2.08V31.9h3.42v-1.34h-3.42v-2.88h-1.52v2.88h-2.1v1.34h2.1v5.78c0 2.3 1.08 3.48 3.02 3.48zm7.895.02c2.08 0 3.84-1.04 3.84-3.02 0-1.94-1.22-2.6-3.5-3.1-1.9-.42-2.5-.78-2.5-1.8 0-1.12.96-1.54 2.02-1.54 1.08 0 2.1.44 2.94 1.1l.72-1.16c-1.04-.82-2.34-1.3-3.66-1.3-1.92 0-3.48 1.06-3.48 2.98 0 1.9 1.18 2.66 3.52 3.16 1.84.4 2.46.68 2.46 1.78 0 1.18-1.16 1.56-2.36 1.56-1.16 0-2.32-.38-3.22-1.1l-.72 1.16c1.1.86 2.48 1.28 3.94 1.28z" fill="#000"/><path fill="#fff" d="M27 63h100v10H27z"/><path d="M151.48 68.74c-1.18 0-2.14-.58-2.14-2.02 0-1.42.96-1.98 2.14-1.98 1.2 0 2.16.56 2.16 1.98 0 1.46-.96 2.02-2.16 2.02zm5 5.54c0-1.56-1.14-2.4-2.94-2.4h-3.06c-1.16 0-1.66-.36-1.66-1.06 0-.48.22-.9.9-1.28.52.26 1.1.4 1.72.4 2.14 0 3.6-1.38 3.6-3.26 0-.84-.3-1.6-.84-2.16.52.12 1.16.2 1.98.26v-1.22h-3.84c-.28-.06-.58-.08-.88-.08-2.02 0-3.52 1.34-3.52 3.2 0 .96.4 1.8 1.06 2.38-.9.36-1.46 1.18-1.46 2.16 0 .82.44 1.48 1.32 1.82-1.1.54-1.68 1.28-1.68 2.24 0 1.34 1.26 2.44 4.18 2.44 3.08 0 5.12-1.36 5.12-3.44zm-4.88 2.18c-2.34 0-3-.68-3-1.48 0-.62.38-1.16 1.26-1.7.18.02.38.02.58.02h3.1c.94 0 1.54.34 1.54 1.16 0 1.24-1.34 2-3.48 2zm9.146-2.46v-7.46c.68-1.18 1.7-1.78 2.76-1.78.42 0 .82.1 1.1.2l.34-1.34c-.32-.16-.8-.24-1.24-.24-1.38 0-2.28.8-2.96 1.9v-1.72h-1.52V74h1.52zm9.7-9.34c1.38 0 2.44.86 2.46 3.18h-5.18c.18-2.22 1.1-3.18 2.72-3.18zm3.82 7.88l-.98-.96c-.66.9-1.52 1.26-2.58 1.26-1.9 0-2.92-1.24-3-3.74h6.74v-1.04c0-3.06-1.76-4.7-3.98-4.7-2.62 0-4.3 1.76-4.3 5.38 0 3.52 1.74 5.44 4.54 5.44 1.38 0 2.82-.52 3.56-1.64zm6.981-7.88c1.38 0 2.44.86 2.46 3.18h-5.18c.18-2.22 1.1-3.18 2.72-3.18zm3.82 7.88l-.98-.96c-.66.9-1.52 1.26-2.58 1.26-1.9 0-2.92-1.24-3-3.74h6.74v-1.04c0-3.06-1.76-4.7-3.98-4.7-2.62 0-4.3 1.76-4.3 5.38 0 3.52 1.74 5.44 4.54 5.44 1.38 0 2.82-.52 3.56-1.64zm4.781 1.46v-7.28c.66-1.18 1.66-1.92 2.84-1.92 1.24 0 2.04.78 2.04 2.38V74h1.52v-7.18c0-2.08-1.22-3.46-3.1-3.46-1.44 0-2.44.68-3.3 2.02v-1.82h-1.52V74h1.52zm15.413 0h1.54V59.68h-1.54V74zm8.896-9.34c1.38 0 2.44.86 2.46 3.18h-5.18c.18-2.22 1.1-3.18 2.72-3.18zm3.82 7.88l-.98-.96c-.66.9-1.52 1.26-2.58 1.26-1.9 0-2.92-1.24-3-3.74h6.74v-1.04c0-3.06-1.76-4.7-3.98-4.7-2.62 0-4.3 1.76-4.3 5.38 0 3.52 1.74 5.44 4.54 5.44 1.38 0 2.82-.52 3.56-1.64zm4.021-10.94c.62 0 1.06-.32 1.06-1 0-.72-.42-1.06-1.06-1.06-.66 0-1.08.34-1.08 1.04s.42 1.02 1.08 1.02zm-.76 12.4h1.52V63.56h-1.52V74zm8.416.18c2.08 0 3.84-1.04 3.84-3.02 0-1.94-1.22-2.6-3.5-3.1-1.9-.42-2.5-.78-2.5-1.8 0-1.12.96-1.54 2.02-1.54 1.08 0 2.1.44 2.94 1.1l.72-1.16c-1.04-.82-2.34-1.3-3.66-1.3-1.92 0-3.48 1.06-3.48 2.98 0 1.9 1.18 2.66 3.52 3.16 1.84.4 2.46.68 2.46 1.78 0 1.18-1.16 1.56-2.36 1.56-1.16 0-2.32-.38-3.22-1.1l-.72 1.16c1.1.86 2.48 1.28 3.94 1.28zm13.099-10.62v7.28c-.66 1.16-1.66 1.92-2.86 1.92-1.22 0-2.02-.78-2.02-2.38v-6.82h-1.52v7.16c0 2.1 1.22 3.46 3.1 3.46 1.46 0 2.44-.66 3.3-2V74h1.52V63.56h-1.52zM249.438 74v-7.46c.68-1.18 1.7-1.78 2.76-1.78.42 0 .82.1 1.1.2l.34-1.34c-.32-.16-.8-.24-1.24-.24-1.38 0-2.28.8-2.96 1.9v-1.72h-1.52V74h1.52zm9.7-9.34c1.38 0 2.44.86 2.46 3.18h-5.18c.18-2.22 1.1-3.18 2.72-3.18zm3.82 7.88l-.98-.96c-.66.9-1.52 1.26-2.58 1.26-1.9 0-2.92-1.24-3-3.74h6.74v-1.04c0-3.06-1.76-4.7-3.98-4.7-2.62 0-4.3 1.76-4.3 5.38 0 3.52 1.74 5.44 4.54 5.44 1.38 0 2.82-.52 3.56-1.64zm11.449.36c-1.26 0-1.98-.68-1.98-1.84 0-1.18.78-1.68 1.86-1.68h2.66v2.3c-.62.7-1.52 1.22-2.54 1.22zm5.52 1.1v-1.32c-.9.28-1.5-.06-1.5-1.08v-4.94c0-2.04-1.42-3.3-3.46-3.3-1.82 0-3.06.78-3.72 2.34l1.24.66c.52-1.28 1.18-1.7 2.34-1.7 1.44 0 2.12.82 2.12 2.24v1.24h-2.7c-2.02 0-3.3 1.18-3.3 3.06 0 1.92 1.4 2.98 3.12 2.98 1.3 0 2.52-.66 3.34-1.6.16 1.12 1.28 1.68 2.52 1.42zm3.905 0v-7.46c.68-1.18 1.7-1.78 2.76-1.78.42 0 .82.1 1.1.2l.34-1.34c-.32-.16-.8-.24-1.24-.24-1.38 0-2.28.8-2.96 1.9v-1.72h-1.52V74h1.52zm9.7-9.34c1.38 0 2.44.86 2.46 3.18h-5.18c.18-2.22 1.1-3.18 2.72-3.18zm3.82 7.88l-.98-.96c-.66.9-1.52 1.26-2.58 1.26-1.9 0-2.92-1.24-3-3.74h6.74v-1.04c0-3.06-1.76-4.7-3.98-4.7-2.62 0-4.3 1.76-4.3 5.38 0 3.52 1.74 5.44 4.54 5.44 1.38 0 2.82-.52 3.56-1.64zm5.961.36c-1.26 0-1.98-.68-1.98-1.84 0-1.18.78-1.68 1.86-1.68h2.66v2.3c-.62.7-1.52 1.22-2.54 1.22zm5.52 1.1v-1.32c-.9.28-1.5-.06-1.5-1.08v-4.94c0-2.04-1.42-3.3-3.46-3.3-1.82 0-3.06.78-3.72 2.34l1.24.66c.52-1.28 1.18-1.7 2.34-1.7 1.44 0 2.12.82 2.12 2.24v1.24h-2.7c-2.02 0-3.3 1.18-3.3 3.06 0 1.92 1.4 2.98 3.12 2.98 1.3 0 2.52-.66 3.34-1.6.16 1.12 1.28 1.68 2.52 1.42zm5.645.18c2.08 0 3.84-1.04 3.84-3.02 0-1.94-1.22-2.6-3.5-3.1-1.9-.42-2.5-.78-2.5-1.8 0-1.12.96-1.54 2.02-1.54 1.08 0 2.1.44 2.94 1.1l.72-1.16c-1.04-.82-2.34-1.3-3.66-1.3-1.92 0-3.48 1.06-3.48 2.98 0 1.9 1.18 2.66 3.52 3.16 1.84.4 2.46.68 2.46 1.78 0 1.18-1.16 1.56-2.36 1.56-1.16 0-2.32-.38-3.22-1.1l-.72 1.16c1.1.86 2.48 1.28 3.94 1.28z" fill="#000"/><path fill="#232324" d="M27 96h100v10H27z"/><path d="M151.46 107.18c1.84 0 3.2-.92 3.8-2.88l-1.42-.48c-.42 1.56-1.22 2.02-2.4 2.02-1.72 0-2.64-1.16-2.64-4.06 0-2.92.94-4.06 2.64-4.06 1.18 0 1.98.46 2.4 2l1.42-.46c-.6-1.98-1.94-2.9-3.78-2.9-2.56 0-4.22 1.78-4.22 5.42 0 3.7 1.66 5.4 4.2 5.4zm10.273 0c2.48 0 4.18-1.7 4.18-5.36 0-3.68-1.72-5.46-4.16-5.46-2.52 0-4.18 1.78-4.18 5.44 0 3.68 1.66 5.38 4.16 5.38zm0-1.34c-1.7 0-2.62-1.16-2.62-4.04 0-2.82.92-4.08 2.62-4.08 1.7 0 2.62 1.26 2.62 4.1 0 2.86-.92 4.02-2.62 4.02zm8.759 1.16v-7.28c.66-1.18 1.66-1.92 2.84-1.92 1.24 0 2.04.78 2.04 2.38V107h1.52v-7.18c0-2.08-1.22-3.46-3.1-3.46-1.44 0-2.44.68-3.3 2.02v-1.82h-1.52V107h1.52zm13.205.18c2.08 0 3.84-1.04 3.84-3.02 0-1.94-1.22-2.6-3.5-3.1-1.9-.42-2.5-.78-2.5-1.8 0-1.12.96-1.54 2.02-1.54 1.08 0 2.1.44 2.94 1.1l.72-1.16c-1.04-.82-2.34-1.3-3.66-1.3-1.92 0-3.48 1.06-3.48 2.98 0 1.9 1.18 2.66 3.52 3.16 1.84.4 2.46.68 2.46 1.78 0 1.18-1.16 1.56-2.36 1.56-1.16 0-2.32-.38-3.22-1.1l-.72 1.16c1.1.86 2.48 1.28 3.94 1.28zm10.699-.02c.68 0 1.4-.12 2.06-.4l-.32-1.3c-.56.24-1.16.34-1.6.34-.98 0-1.64-.64-1.64-2.08V97.9h3.42v-1.34h-3.42v-2.88h-1.52v2.88h-2.1v1.34h2.1v5.78c0 2.3 1.08 3.48 3.02 3.48zm6.155-.16v-7.46c.68-1.18 1.7-1.78 2.76-1.78.42 0 .82.1 1.1.2l.34-1.34c-.32-.16-.8-.24-1.24-.24-1.38 0-2.28.8-2.96 1.9v-1.72h-1.52V107h1.52zm12.475-10.44v7.28c-.66 1.16-1.66 1.92-2.86 1.92-1.22 0-2.02-.78-2.02-2.38v-6.82h-1.52v7.16c0 2.1 1.22 3.46 3.1 3.46 1.46 0 2.44-.66 3.3-2V107h1.52V96.56h-1.52zm8.805 10.62c1.84 0 3.2-.92 3.8-2.88l-1.42-.48c-.42 1.56-1.22 2.02-2.4 2.02-1.72 0-2.64-1.16-2.64-4.06 0-2.92.94-4.06 2.64-4.06 1.18 0 1.98.46 2.4 2l1.42-.46c-.6-1.98-1.94-2.9-3.78-2.9-2.56 0-4.22 1.78-4.22 5.42 0 3.7 1.66 5.4 4.2 5.4zm10.573-.02c.68 0 1.4-.12 2.06-.4l-.32-1.3c-.56.24-1.16.34-1.6.34-.98 0-1.64-.64-1.64-2.08V97.9h3.42v-1.34h-3.42v-2.88h-1.52v2.88h-2.1v1.34h2.1v5.78c0 2.3 1.08 3.48 3.02 3.48zm8.257-9.5c1.38 0 2.44.86 2.46 3.18h-5.18c.18-2.22 1.1-3.18 2.72-3.18zm3.82 7.88l-.98-.96c-.66.9-1.52 1.26-2.58 1.26-1.9 0-2.92-1.24-3-3.74h6.74v-1.04c0-3.06-1.76-4.7-3.98-4.7-2.62 0-4.3 1.76-4.3 5.38 0 3.52 1.74 5.44 4.54 5.44 1.38 0 2.82-.52 3.56-1.64zm6.941-7.82c.92.02 1.7.24 2.38.72v5.62c-.66 1.1-1.64 1.7-2.62 1.7-1.4 0-2.48-.84-2.48-3.86 0-3.08 1.2-4.16 2.72-4.18zm-.22-1.36c-2.12 0-4.02 1.62-4.02 5.54 0 3.66 1.54 5.28 3.56 5.28 1.42 0 2.46-.86 3.1-1.8V107h1.48V92.68h-1.52v4.38c-.7-.42-1.54-.7-2.6-.7zm15.939 9.54c-1.26 0-1.98-.68-1.98-1.84 0-1.18.78-1.68 1.86-1.68h2.66v2.3c-.62.7-1.52 1.22-2.54 1.22zm5.52 1.1v-1.32c-.9.28-1.5-.06-1.5-1.08v-4.94c0-2.04-1.42-3.3-3.46-3.3-1.82 0-3.06.78-3.72 2.34l1.24.66c.52-1.28 1.18-1.7 2.34-1.7 1.44 0 2.12.82 2.12 2.24v1.24h-2.7c-2.02 0-3.3 1.18-3.3 3.06 0 1.92 1.4 2.98 3.12 2.98 1.3 0 2.52-.66 3.34-1.6.16 1.12 1.28 1.68 2.52 1.42zm3.906 0v-7.46c.68-1.18 1.7-1.78 2.76-1.78.42 0 .82.1 1.1.2l.34-1.34c-.32-.16-.8-.24-1.24-.24-1.38 0-2.28.8-2.96 1.9v-1.72h-1.52V107h1.52zm9.7-9.34c1.38 0 2.44.86 2.46 3.18h-5.18c.18-2.22 1.1-3.18 2.72-3.18zm3.82 7.88l-.98-.96c-.66.9-1.52 1.26-2.58 1.26-1.9 0-2.92-1.24-3-3.74h6.74v-1.04c0-3.06-1.76-4.7-3.98-4.7-2.62 0-4.3 1.76-4.3 5.38 0 3.52 1.74 5.44 4.54 5.44 1.38 0 2.82-.52 3.56-1.64zm5.96.36c-1.26 0-1.98-.68-1.98-1.84 0-1.18.78-1.68 1.86-1.68h2.66v2.3c-.62.7-1.52 1.22-2.54 1.22zm5.52 1.1v-1.32c-.9.28-1.5-.06-1.5-1.08v-4.94c0-2.04-1.42-3.3-3.46-3.3-1.82 0-3.06.78-3.72 2.34l1.24.66c.52-1.28 1.18-1.7 2.34-1.7 1.44 0 2.12.82 2.12 2.24v1.24h-2.7c-2.02 0-3.3 1.18-3.3 3.06 0 1.92 1.4 2.98 3.12 2.98 1.3 0 2.52-.66 3.34-1.6.16 1.12 1.28 1.68 2.52 1.42z" fill="#000"/><path fill="#FDC2AA" d="M27 129h100v10H27z"/><path d="M149.34 140v-7.46c.68-1.18 1.7-1.78 2.76-1.78.42 0 .82.1 1.1.2l.34-1.34c-.32-.16-.8-.24-1.24-.24-1.38 0-2.28.8-2.96 1.9v-1.72h-1.52V140h1.52zm9.7-9.34c1.38 0 2.44.86 2.46 3.18h-5.18c.18-2.22 1.1-3.18 2.72-3.18zm3.82 7.88l-.98-.96c-.66.9-1.52 1.26-2.58 1.26-1.9 0-2.92-1.24-3-3.74h6.74v-1.04c0-3.06-1.76-4.7-3.98-4.7-2.62 0-4.3 1.76-4.3 5.38 0 3.52 1.74 5.44 4.54 5.44 1.38 0 2.82-.52 3.56-1.64zm6.521 1.64c2.08 0 3.84-1.04 3.84-3.02 0-1.94-1.22-2.6-3.5-3.1-1.9-.42-2.5-.78-2.5-1.8 0-1.12.96-1.54 2.02-1.54 1.08 0 2.1.44 2.94 1.1l.72-1.16c-1.04-.82-2.34-1.3-3.66-1.3-1.92 0-3.48 1.06-3.48 2.98 0 1.9 1.18 2.66 3.52 3.16 1.84.4 2.46.68 2.46 1.78 0 1.18-1.16 1.56-2.36 1.56-1.16 0-2.32-.38-3.22-1.1l-.72 1.16c1.1.86 2.48 1.28 3.94 1.28zm7.558-12.58c.62 0 1.06-.32 1.06-1 0-.72-.42-1.06-1.06-1.06-.66 0-1.08.34-1.08 1.04s.42 1.02 1.08 1.02zm-.76 12.4h1.52v-10.44h-1.52V140zm8.837-9.28c.92.02 1.7.24 2.38.72v5.62c-.66 1.1-1.64 1.7-2.62 1.7-1.4 0-2.48-.84-2.48-3.86 0-3.08 1.2-4.16 2.72-4.18zm-.22-1.36c-2.12 0-4.02 1.62-4.02 5.54 0 3.66 1.54 5.28 3.56 5.28 1.42 0 2.46-.86 3.1-1.8V140h1.48v-14.32h-1.52v4.38c-.7-.42-1.54-.7-2.6-.7zm11.471 1.3c1.38 0 2.44.86 2.46 3.18h-5.18c.18-2.22 1.1-3.18 2.72-3.18zm3.82 7.88l-.98-.96c-.66.9-1.52 1.26-2.58 1.26-1.9 0-2.92-1.24-3-3.74h6.74v-1.04c0-3.06-1.76-4.7-3.98-4.7-2.62 0-4.3 1.76-4.3 5.38 0 3.52 1.74 5.44 4.54 5.44 1.38 0 2.82-.52 3.56-1.64zm4.78 1.46v-7.28c.66-1.18 1.66-1.92 2.84-1.92 1.24 0 2.04.78 2.04 2.38V140h1.52v-7.18c0-2.08-1.22-3.46-3.1-3.46-1.44 0-2.44.68-3.3 2.02v-1.82h-1.52V140h1.52zm13.845.16c.68 0 1.4-.12 2.06-.4l-.32-1.3c-.56.24-1.16.34-1.6.34-.98 0-1.64-.64-1.64-2.08v-5.82h3.42v-1.34h-3.42v-2.88h-1.52v2.88h-2.1v1.34h2.1v5.78c0 2.3 1.08 3.48 3.02 3.48zm5.395-12.56c.62 0 1.06-.32 1.06-1 0-.72-.42-1.06-1.06-1.06-.66 0-1.08.34-1.08 1.04s.42 1.02 1.08 1.02zm-.76 12.4h1.52v-10.44h-1.52V140zm7.857-1.1c-1.26 0-1.98-.68-1.98-1.84 0-1.18.78-1.68 1.86-1.68h2.66v2.3c-.62.7-1.52 1.22-2.54 1.22zm5.52 1.1v-1.32c-.9.28-1.5-.06-1.5-1.08v-4.94c0-2.04-1.42-3.3-3.46-3.3-1.82 0-3.06.78-3.72 2.34l1.24.66c.52-1.28 1.18-1.7 2.34-1.7 1.44 0 2.12.82 2.12 2.24v1.24h-2.7c-2.02 0-3.3 1.18-3.3 3.06 0 1.92 1.4 2.98 3.12 2.98 1.3 0 2.52-.66 3.34-1.6.16 1.12 1.28 1.68 2.52 1.42zm2.365 0h1.54v-14.32h-1.54V140zm13.365-1.1c-1.26 0-1.98-.68-1.98-1.84 0-1.18.78-1.68 1.86-1.68h2.66v2.3c-.62.7-1.52 1.22-2.54 1.22zm5.52 1.1v-1.32c-.9.28-1.5-.06-1.5-1.08v-4.94c0-2.04-1.42-3.3-3.46-3.3-1.82 0-3.06.78-3.72 2.34l1.24.66c.52-1.28 1.18-1.7 2.34-1.7 1.44 0 2.12.82 2.12 2.24v1.24h-2.7c-2.02 0-3.3 1.18-3.3 3.06 0 1.92 1.4 2.98 3.12 2.98 1.3 0 2.52-.66 3.34-1.6.16 1.12 1.28 1.68 2.52 1.42zm3.905 0v-7.46c.68-1.18 1.7-1.78 2.76-1.78.42 0 .82.1 1.1.2l.34-1.34c-.32-.16-.8-.24-1.24-.24-1.38 0-2.28.8-2.96 1.9v-1.72h-1.52V140h1.52zm9.7-9.34c1.38 0 2.44.86 2.46 3.18h-5.18c.18-2.22 1.1-3.18 2.72-3.18zm3.82 7.88l-.98-.96c-.66.9-1.52 1.26-2.58 1.26-1.9 0-2.92-1.24-3-3.74h6.74v-1.04c0-3.06-1.76-4.7-3.98-4.7-2.62 0-4.3 1.76-4.3 5.38 0 3.52 1.74 5.44 4.54 5.44 1.38 0 2.82-.52 3.56-1.64zm5.961.36c-1.26 0-1.98-.68-1.98-1.84 0-1.18.78-1.68 1.86-1.68h2.66v2.3c-.62.7-1.52 1.22-2.54 1.22zm5.52 1.1v-1.32c-.9.28-1.5-.06-1.5-1.08v-4.94c0-2.04-1.42-3.3-3.46-3.3-1.82 0-3.06.78-3.72 2.34l1.24.66c.52-1.28 1.18-1.7 2.34-1.7 1.44 0 2.12.82 2.12 2.24v1.24h-2.7c-2.02 0-3.3 1.18-3.3 3.06 0 1.92 1.4 2.98 3.12 2.98 1.3 0 2.52-.66 3.34-1.6.16 1.12 1.28 1.68 2.52 1.42zm5.645.18c2.08 0 3.84-1.04 3.84-3.02 0-1.94-1.22-2.6-3.5-3.1-1.9-.42-2.5-.78-2.5-1.8 0-1.12.96-1.54 2.02-1.54 1.08 0 2.1.44 2.94 1.1l.72-1.16c-1.04-.82-2.34-1.3-3.66-1.3-1.92 0-3.48 1.06-3.48 2.98 0 1.9 1.18 2.66 3.52 3.16 1.84.4 2.46.68 2.46 1.78 0 1.18-1.16 1.56-2.36 1.56-1.16 0-2.32-.38-3.22-1.1l-.72 1.16c1.1.86 2.48 1.28 3.94 1.28z" fill="#000"/><path fill="#1252D6" d="M27 162h100v10H27z"/><path d="M149.34 165.32c.72-.98 1.62-1.52 2.78-1.52.96 0 1.58.64 1.58 1.98V173h1.52v-7.68c.72-.96 1.64-1.52 2.8-1.52.94 0 1.56.64 1.56 1.98V173h1.52v-7.56c0-1.88-1.04-3.08-2.64-3.08-1.22 0-2.32.46-3.42 1.84-.36-1.14-1.26-1.84-2.48-1.84s-2.3.46-3.22 1.62v-1.42h-1.54V173h1.54v-7.68zm18.997-1.66c1.38 0 2.44.86 2.46 3.18h-5.18c.18-2.22 1.1-3.18 2.72-3.18zm3.82 7.88l-.98-.96c-.66.9-1.52 1.26-2.58 1.26-1.9 0-2.92-1.24-3-3.74h6.74v-1.04c0-3.06-1.76-4.7-3.98-4.7-2.62 0-4.3 1.76-4.3 5.38 0 3.52 1.74 5.44 4.54 5.44 1.38 0 2.82-.52 3.56-1.64zm6.941-7.82c.92.02 1.7.24 2.38.72v5.62c-.66 1.1-1.64 1.7-2.62 1.7-1.4 0-2.48-.84-2.48-3.86 0-3.08 1.2-4.16 2.72-4.18zm-.22-1.36c-2.12 0-4.02 1.62-4.02 5.54 0 3.66 1.54 5.28 3.56 5.28 1.42 0 2.46-.86 3.1-1.8V173h1.48v-14.32h-1.52v4.38c-.7-.42-1.54-.7-2.6-.7zm8.511-1.76c.62 0 1.06-.32 1.06-1 0-.72-.42-1.06-1.06-1.06-.66 0-1.08.34-1.08 1.04s.42 1.02 1.08 1.02zm-.76 12.4h1.52v-10.44h-1.52V173zm8.796.18c1.84 0 3.2-.92 3.8-2.88l-1.42-.48c-.42 1.56-1.22 2.02-2.4 2.02-1.72 0-2.64-1.16-2.64-4.06 0-2.92.94-4.06 2.64-4.06 1.18 0 1.98.46 2.4 2l1.42-.46c-.6-1.98-1.94-2.9-3.78-2.9-2.56 0-4.22 1.78-4.22 5.42 0 3.7 1.66 5.4 4.2 5.4zm9.372-1.28c-1.26 0-1.98-.68-1.98-1.84 0-1.18.78-1.68 1.86-1.68h2.66v2.3c-.62.7-1.52 1.22-2.54 1.22zm5.52 1.1v-1.32c-.9.28-1.5-.06-1.5-1.08v-4.94c0-2.04-1.42-3.3-3.46-3.3-1.82 0-3.06.78-3.72 2.34l1.24.66c.52-1.28 1.18-1.7 2.34-1.7 1.44 0 2.12.82 2.12 2.24v1.24h-2.7c-2.02 0-3.3 1.18-3.3 3.06 0 1.92 1.4 2.98 3.12 2.98 1.3 0 2.52-.66 3.34-1.6.16 1.12 1.28 1.68 2.52 1.42zm2.366 0h1.54v-14.32h-1.54V173zm11.744 0h1.54v-9.1h3v-1.34h-3v-.98c0-1.82 1.66-1.72 2.82-1.3l.32-1.22c-2.2-.78-4.68.02-4.68 2.52v.98h-2.08v1.34h2.08v9.1zm9.941-1.1c-1.26 0-1.98-.68-1.98-1.84 0-1.18.78-1.68 1.86-1.68h2.66v2.3c-.62.7-1.52 1.22-2.54 1.22zm5.52 1.1v-1.32c-.9.28-1.5-.06-1.5-1.08v-4.94c0-2.04-1.42-3.3-3.46-3.3-1.82 0-3.06.78-3.72 2.34l1.24.66c.52-1.28 1.18-1.7 2.34-1.7 1.44 0 2.12.82 2.12 2.24v1.24h-2.7c-2.02 0-3.3 1.18-3.3 3.06 0 1.92 1.4 2.98 3.12 2.98 1.3 0 2.52-.66 3.34-1.6.16 1.12 1.28 1.68 2.52 1.42zm5.927.18c1.84 0 3.2-.92 3.8-2.88l-1.42-.48c-.42 1.56-1.22 2.02-2.4 2.02-1.72 0-2.64-1.16-2.64-4.06 0-2.92.94-4.06 2.64-4.06 1.18 0 1.98.46 2.4 2l1.42-.46c-.6-1.98-1.94-2.9-3.78-2.9-2.56 0-4.22 1.78-4.22 5.42 0 3.7 1.66 5.4 4.2 5.4zm7.433-12.58c.62 0 1.06-.32 1.06-1 0-.72-.42-1.06-1.06-1.06-.66 0-1.08.34-1.08 1.04s.42 1.02 1.08 1.02zm-.76 12.4h1.52v-10.44h-1.52V173zm5.136 0h1.54v-14.32h-1.54V173zm5.936-12.4c.62 0 1.06-.32 1.06-1 0-.72-.42-1.06-1.06-1.06-.66 0-1.08.34-1.08 1.04s.42 1.02 1.08 1.02zm-.76 12.4h1.52v-10.44h-1.52V173zm9.057.16c.68 0 1.4-.12 2.06-.4l-.32-1.3c-.56.24-1.16.34-1.6.34-.98 0-1.64-.64-1.64-2.08v-5.82h3.42v-1.34h-3.42v-2.88h-1.52v2.88h-2.1v1.34h2.1v5.78c0 2.3 1.08 3.48 3.02 3.48zm5.395-12.56c.62 0 1.06-.32 1.06-1 0-.72-.42-1.06-1.06-1.06-.66 0-1.08.34-1.08 1.04s.42 1.02 1.08 1.02zm-.76 12.4h1.52v-10.44h-1.52V173zm8.876-9.34c1.38 0 2.44.86 2.46 3.18h-5.18c.18-2.22 1.1-3.18 2.72-3.18zm3.82 7.88l-.98-.96c-.66.9-1.52 1.26-2.58 1.26-1.9 0-2.92-1.24-3-3.74h6.74v-1.04c0-3.06-1.76-4.7-3.98-4.7-2.62 0-4.3 1.76-4.3 5.38 0 3.52 1.74 5.44 4.54 5.44 1.38 0 2.82-.52 3.56-1.64zm6.521 1.64c2.08 0 3.84-1.04 3.84-3.02 0-1.94-1.22-2.6-3.5-3.1-1.9-.42-2.5-.78-2.5-1.8 0-1.12.96-1.54 2.02-1.54 1.08 0 2.1.44 2.94 1.1l.72-1.16c-1.04-.82-2.34-1.3-3.66-1.3-1.92 0-3.48 1.06-3.48 2.98 0 1.9 1.18 2.66 3.52 3.16 1.84.4 2.46.68 2.46 1.78 0 1.18-1.16 1.56-2.36 1.56-1.16 0-2.32-.38-3.22-1.1l-.72 1.16c1.1.86 2.48 1.28 3.94 1.28z" fill="#000"/></svg>