<svg width="467" height="75" viewBox="0 0 467 75" fill="none" xmlns="http://www.w3.org/2000/svg">
<g opacity="0.58">
<rect width="467" height="75" rx="5" fill="black"/>
</g>
<rect x="11" y="18" width="50" height="10" fill="#DCDCDC"/>
<path d="M84.84 28.135C86.46 28.135 87.81 27.325 87.81 25.78C87.81 24.325 86.895 23.755 85.035 23.425C83.79 23.155 83.37 22.915 83.37 22.225C83.37 21.475 84 21.19 84.75 21.19C85.53 21.19 86.295 21.49 86.97 21.97L87.555 20.965C86.775 20.38 85.77 20.02 84.735 20.02C83.235 20.02 81.99 20.875 81.99 22.345C81.99 23.815 82.965 24.415 84.795 24.745C86.01 25 86.445 25.195 86.445 25.915C86.445 26.71 85.695 26.98 84.855 26.98C83.985 26.98 83.085 26.695 82.365 26.155L81.78 27.175C82.62 27.805 83.715 28.135 84.84 28.135ZM92.9379 28.12C93.4779 28.12 94.0479 28.015 94.4979 27.82L94.2579 26.68C93.8379 26.86 93.4179 26.935 93.1029 26.935C92.4129 26.935 91.9629 26.47 91.9629 25.435V21.34H94.3929V20.17H91.9629V18.01H90.5079V20.17H89.0079V21.34H90.5079V25.48C90.5079 27.22 91.3779 28.12 92.9379 28.12ZM97.7629 28V22.495C98.2579 21.73 99.0079 21.34 99.7879 21.34C100.088 21.34 100.388 21.4 100.598 21.475L100.838 20.2C100.613 20.095 100.283 20.035 99.9829 20.035C98.9629 20.035 98.2429 20.635 97.7479 21.505V20.17H96.3079V28H97.7629ZM105.019 21.145C105.994 21.145 106.714 21.76 106.729 23.365H103.144C103.279 21.79 103.909 21.145 105.019 21.145ZM108.034 26.89L107.179 26.05C106.669 26.725 106.054 26.995 105.244 26.995C103.924 26.995 103.219 26.185 103.129 24.445H108.154V23.62C108.154 21.295 106.819 20.02 105.049 20.02C103.024 20.02 101.689 21.355 101.689 24.055C101.689 26.725 103.069 28.135 105.214 28.135C106.294 28.135 107.404 27.73 108.034 26.89ZM113.222 21.145C114.197 21.145 114.917 21.76 114.932 23.365H111.347C111.482 21.79 112.112 21.145 113.222 21.145ZM116.237 26.89L115.382 26.05C114.872 26.725 114.257 26.995 113.447 26.995C112.127 26.995 111.422 26.185 111.332 24.445H116.357V23.62C116.357 21.295 115.022 20.02 113.252 20.02C111.227 20.02 109.892 21.355 109.892 24.055C109.892 26.725 111.272 28.135 113.417 28.135C114.497 28.135 115.607 27.73 116.237 26.89ZM121.576 28.12C122.116 28.12 122.686 28.015 123.136 27.82L122.896 26.68C122.476 26.86 122.056 26.935 121.741 26.935C121.051 26.935 120.601 26.47 120.601 25.435V21.34H123.031V20.17H120.601V18.01H119.146V20.17H117.646V21.34H119.146V25.48C119.146 27.22 120.016 28.12 121.576 28.12ZM127.526 28.135C129.146 28.135 130.496 27.325 130.496 25.78C130.496 24.325 129.581 23.755 127.721 23.425C126.476 23.155 126.056 22.915 126.056 22.225C126.056 21.475 126.686 21.19 127.436 21.19C128.216 21.19 128.981 21.49 129.656 21.97L130.241 20.965C129.461 20.38 128.456 20.02 127.421 20.02C125.921 20.02 124.676 20.875 124.676 22.345C124.676 23.815 125.651 24.415 127.481 24.745C128.696 25 129.131 25.195 129.131 25.915C129.131 26.71 128.381 26.98 127.541 26.98C126.671 26.98 125.771 26.695 125.051 26.155L124.466 27.175C125.306 27.805 126.401 28.135 127.526 28.135Z" fill="white"/>
<rect x="255" y="18" width="50" height="10" fill="#7FB2D6"/>
<path d="M329.605 28.135C331.33 28.135 332.71 26.83 332.71 24.01C332.71 21.28 331.57 20.02 330.01 20.02C328.915 20.02 328.195 20.68 327.715 21.415V17.26H326.26V28H327.655V27.655C328.15 27.955 328.795 28.135 329.605 28.135ZM329.395 26.965C328.69 26.95 328.18 26.785 327.715 26.44V22.405C328.195 21.67 328.87 21.28 329.545 21.28C330.535 21.28 331.27 21.865 331.27 24.01C331.27 26.14 330.505 26.95 329.395 26.965ZM339.569 20.17V25.525C339.104 26.365 338.384 26.89 337.574 26.89C336.749 26.89 336.224 26.35 336.224 25.255V20.17H334.769V25.525C334.769 27.13 335.669 28.135 337.109 28.135C338.219 28.135 338.999 27.625 339.584 26.65V28H341.024V20.17H339.569ZM344.28 18.82C344.835 18.82 345.24 18.535 345.24 17.98C345.24 17.38 344.85 17.08 344.28 17.08C343.725 17.08 343.335 17.38 343.335 17.965C343.335 18.535 343.725 18.82 344.28 18.82ZM343.56 28H345.015V20.17H343.56V28ZM347.574 28H349.029V17.26H347.574V28ZM354.498 21.205C355.158 21.205 355.698 21.385 356.178 21.715V25.75C355.683 26.5 355.008 26.89 354.333 26.89C353.358 26.89 352.623 26.29 352.623 24.16C352.623 22.03 353.373 21.205 354.498 21.205ZM354.273 20.02C352.563 20.02 351.168 21.34 351.168 24.16C351.168 26.89 352.323 28.135 353.868 28.135C354.978 28.135 355.758 27.49 356.208 26.755V28H357.618V17.26H356.178V20.515C355.638 20.215 355.038 20.02 354.273 20.02ZM360.877 18.82C361.432 18.82 361.837 18.535 361.837 17.98C361.837 17.38 361.447 17.08 360.877 17.08C360.322 17.08 359.932 17.38 359.932 17.965C359.932 18.535 360.322 18.82 360.877 18.82ZM360.157 28H361.612V20.17H360.157V28ZM365.611 28V22.63C366.091 21.805 366.796 21.28 367.606 21.28C368.431 21.28 368.956 21.82 368.956 22.915V28H370.411V22.63C370.411 21.04 369.511 20.02 368.071 20.02C366.976 20.02 366.181 20.545 365.596 21.52V20.17H364.156V28H365.611ZM375.752 23.98C374.942 23.98 374.267 23.575 374.267 22.555C374.267 21.55 374.942 21.145 375.752 21.145C376.577 21.145 377.252 21.55 377.252 22.555C377.252 23.59 376.577 23.98 375.752 23.98ZM379.667 28.21C379.667 26.965 378.752 26.335 377.342 26.335H374.972C374.207 26.335 373.847 26.08 373.847 25.6C373.847 25.27 373.997 24.985 374.492 24.73C374.852 24.88 375.272 24.97 375.722 24.97C377.402 24.97 378.557 23.935 378.557 22.525C378.557 21.94 378.362 21.415 377.987 20.995C378.422 21.115 378.887 21.175 379.457 21.22V20.17H376.427C376.202 20.125 375.977 20.11 375.737 20.11C374.147 20.11 372.947 21.115 372.947 22.525C372.947 23.26 373.277 23.89 373.817 24.325C373.127 24.61 372.677 25.24 372.677 25.975C372.677 26.59 373.022 27.07 373.637 27.34C372.827 27.73 372.392 28.27 372.392 28.99C372.392 29.98 373.322 30.82 375.677 30.82C378.122 30.82 379.667 29.785 379.667 28.21ZM375.887 29.77C374.147 29.77 373.712 29.29 373.712 28.69C373.712 28.27 373.937 27.91 374.462 27.55C374.597 27.565 374.732 27.58 374.897 27.58H377.267C377.927 27.58 378.347 27.805 378.347 28.405C378.347 29.23 377.447 29.77 375.887 29.77ZM384.094 28.135C385.714 28.135 387.064 27.325 387.064 25.78C387.064 24.325 386.149 23.755 384.289 23.425C383.044 23.155 382.624 22.915 382.624 22.225C382.624 21.475 383.254 21.19 384.004 21.19C384.784 21.19 385.549 21.49 386.224 21.97L386.809 20.965C386.029 20.38 385.024 20.02 383.989 20.02C382.489 20.02 381.244 20.875 381.244 22.345C381.244 23.815 382.219 24.415 384.049 24.745C385.264 25 385.699 25.195 385.699 25.915C385.699 26.71 384.949 26.98 384.109 26.98C383.239 26.98 382.339 26.695 381.619 26.155L381.034 27.175C381.874 27.805 382.969 28.135 384.094 28.135Z" fill="white"/>
<rect x="255.5" y="44.5" width="49" height="9" fill="#0A0A0A" stroke="#7FB2D6"/>
<path d="M329.155 49.98C328.345 49.98 327.67 49.575 327.67 48.555C327.67 47.55 328.345 47.145 329.155 47.145C329.98 47.145 330.655 47.55 330.655 48.555C330.655 49.59 329.98 49.98 329.155 49.98ZM333.07 54.21C333.07 52.965 332.155 52.335 330.745 52.335H328.375C327.61 52.335 327.25 52.08 327.25 51.6C327.25 51.27 327.4 50.985 327.895 50.73C328.255 50.88 328.675 50.97 329.125 50.97C330.805 50.97 331.96 49.935 331.96 48.525C331.96 47.94 331.765 47.415 331.39 46.995C331.825 47.115 332.29 47.175 332.86 47.22V46.17H329.83C329.605 46.125 329.38 46.11 329.14 46.11C327.55 46.11 326.35 47.115 326.35 48.525C326.35 49.26 326.68 49.89 327.22 50.325C326.53 50.61 326.08 51.24 326.08 51.975C326.08 52.59 326.425 53.07 327.04 53.34C326.23 53.73 325.795 54.27 325.795 54.99C325.795 55.98 326.725 56.82 329.08 56.82C331.525 56.82 333.07 55.785 333.07 54.21ZM329.29 55.77C327.55 55.77 327.115 55.29 327.115 54.69C327.115 54.27 327.34 53.91 327.865 53.55C328 53.565 328.135 53.58 328.3 53.58H330.67C331.33 53.58 331.75 53.805 331.75 54.405C331.75 55.23 330.85 55.77 329.29 55.77ZM336.372 54V48.495C336.867 47.73 337.617 47.34 338.397 47.34C338.697 47.34 338.997 47.4 339.207 47.475L339.447 46.2C339.222 46.095 338.892 46.035 338.592 46.035C337.572 46.035 336.852 46.635 336.357 47.505V46.17H334.917V54H336.372ZM343.629 47.145C344.604 47.145 345.324 47.76 345.339 49.365H341.754C341.889 47.79 342.519 47.145 343.629 47.145ZM346.644 52.89L345.789 52.05C345.279 52.725 344.664 52.995 343.854 52.995C342.534 52.995 341.829 52.185 341.739 50.445H346.764V49.62C346.764 47.295 345.429 46.02 343.659 46.02C341.634 46.02 340.299 47.355 340.299 50.055C340.299 52.725 341.679 54.135 343.824 54.135C344.904 54.135 346.014 53.73 346.644 52.89ZM351.832 47.145C352.807 47.145 353.527 47.76 353.542 49.365H349.957C350.092 47.79 350.722 47.145 351.832 47.145ZM354.847 52.89L353.992 52.05C353.482 52.725 352.867 52.995 352.057 52.995C350.737 52.995 350.032 52.185 349.942 50.445H354.967V49.62C354.967 47.295 353.632 46.02 351.862 46.02C349.837 46.02 348.502 47.355 348.502 50.055C348.502 52.725 349.882 54.135 352.027 54.135C353.107 54.135 354.217 53.73 354.847 52.89ZM358.55 54V48.63C359.03 47.805 359.735 47.28 360.545 47.28C361.37 47.28 361.895 47.82 361.895 48.915V54H363.35V48.63C363.35 47.04 362.45 46.02 361.01 46.02C359.915 46.02 359.12 46.545 358.535 47.52V46.17H357.095V54H358.55ZM372.147 53.04C371.262 53.04 370.782 52.59 370.782 51.765C370.782 50.94 371.322 50.58 372.087 50.58H373.902V52.215C373.452 52.695 372.837 53.04 372.147 53.04ZM376.362 53.985V52.875C375.702 53.07 375.297 52.83 375.297 52.125V48.555C375.297 46.965 374.127 46.02 372.522 46.02C371.097 46.02 370.122 46.62 369.597 47.82L370.707 48.405C371.097 47.475 371.562 47.145 372.417 47.145C373.392 47.145 373.887 47.715 373.887 48.69V49.575H371.967C370.392 49.575 369.387 50.43 369.387 51.87C369.387 53.325 370.407 54.135 371.742 54.135C372.762 54.135 373.662 53.655 374.277 52.95C374.442 53.835 375.372 54.21 376.362 53.985ZM379.483 54V48.495C379.978 47.73 380.728 47.34 381.508 47.34C381.808 47.34 382.108 47.4 382.318 47.475L382.558 46.2C382.333 46.095 382.003 46.035 381.703 46.035C380.683 46.035 379.963 46.635 379.468 47.505V46.17H378.028V54H379.483ZM386.739 47.145C387.714 47.145 388.434 47.76 388.449 49.365H384.864C384.999 47.79 385.629 47.145 386.739 47.145ZM389.754 52.89L388.899 52.05C388.389 52.725 387.774 52.995 386.964 52.995C385.644 52.995 384.939 52.185 384.849 50.445H389.874V49.62C389.874 47.295 388.539 46.02 386.769 46.02C384.744 46.02 383.409 47.355 383.409 50.055C383.409 52.725 384.789 54.135 386.934 54.135C388.014 54.135 389.124 53.73 389.754 52.89ZM394.237 53.04C393.352 53.04 392.872 52.59 392.872 51.765C392.872 50.94 393.412 50.58 394.177 50.58H395.992V52.215C395.542 52.695 394.927 53.04 394.237 53.04ZM398.452 53.985V52.875C397.792 53.07 397.387 52.83 397.387 52.125V48.555C397.387 46.965 396.217 46.02 394.612 46.02C393.187 46.02 392.212 46.62 391.687 47.82L392.797 48.405C393.187 47.475 393.652 47.145 394.507 47.145C395.482 47.145 395.977 47.715 395.977 48.69V49.575H394.057C392.482 49.575 391.477 50.43 391.477 51.87C391.477 53.325 392.497 54.135 393.832 54.135C394.852 54.135 395.752 53.655 396.367 52.95C396.532 53.835 397.462 54.21 398.452 53.985ZM402.697 54.135C404.317 54.135 405.667 53.325 405.667 51.78C405.667 50.325 404.752 49.755 402.892 49.425C401.647 49.155 401.227 48.915 401.227 48.225C401.227 47.475 401.857 47.19 402.607 47.19C403.387 47.19 404.152 47.49 404.827 47.97L405.412 46.965C404.632 46.38 403.627 46.02 402.592 46.02C401.092 46.02 399.847 46.875 399.847 48.345C399.847 49.815 400.822 50.415 402.652 50.745C403.867 51 404.302 51.195 404.302 51.915C404.302 52.71 403.552 52.98 402.712 52.98C401.842 52.98 400.942 52.695 400.222 52.155L399.637 53.175C400.477 53.805 401.572 54.135 402.697 54.135Z" fill="white"/>
<rect x="11" y="44" width="50" height="10" fill="#6D6D6D"/>
<path d="M84.84 54.135C86.46 54.135 87.81 53.325 87.81 51.78C87.81 50.325 86.895 49.755 85.035 49.425C83.79 49.155 83.37 48.915 83.37 48.225C83.37 47.475 84 47.19 84.75 47.19C85.53 47.19 86.295 47.49 86.97 47.97L87.555 46.965C86.775 46.38 85.77 46.02 84.735 46.02C83.235 46.02 81.99 46.875 81.99 48.345C81.99 49.815 82.965 50.415 84.795 50.745C86.01 51 86.445 51.195 86.445 51.915C86.445 52.71 85.695 52.98 84.855 52.98C83.985 52.98 83.085 52.695 82.365 52.155L81.78 53.175C82.62 53.805 83.715 54.135 84.84 54.135ZM92.7879 47.145C93.7629 47.145 94.4829 47.76 94.4979 49.365H90.9129C91.0479 47.79 91.6779 47.145 92.7879 47.145ZM95.8029 52.89L94.9479 52.05C94.4379 52.725 93.8229 52.995 93.0129 52.995C91.6929 52.995 90.9879 52.185 90.8979 50.445H95.9229V49.62C95.9229 47.295 94.5879 46.02 92.8179 46.02C90.7929 46.02 89.4579 47.355 89.4579 50.055C89.4579 52.725 90.8379 54.135 92.9829 54.135C94.0629 54.135 95.1729 53.73 95.8029 52.89ZM100.286 53.04C99.401 53.04 98.921 52.59 98.921 51.765C98.921 50.94 99.461 50.58 100.226 50.58H102.041V52.215C101.591 52.695 100.976 53.04 100.286 53.04ZM104.501 53.985V52.875C103.841 53.07 103.436 52.83 103.436 52.125V48.555C103.436 46.965 102.266 46.02 100.661 46.02C99.236 46.02 98.261 46.62 97.736 47.82L98.846 48.405C99.236 47.475 99.701 47.145 100.556 47.145C101.531 47.145 102.026 47.715 102.026 48.69V49.575H100.106C98.531 49.575 97.526 50.43 97.526 51.87C97.526 53.325 98.546 54.135 99.881 54.135C100.901 54.135 101.801 53.655 102.416 52.95C102.581 53.835 103.511 54.21 104.501 53.985ZM106.181 54H107.636V43.26H106.181V54ZM113.105 47.145C114.08 47.145 114.8 47.76 114.815 49.365H111.23C111.365 47.79 111.995 47.145 113.105 47.145ZM116.12 52.89L115.265 52.05C114.755 52.725 114.14 52.995 113.33 52.995C112.01 52.995 111.305 52.185 111.215 50.445H116.24V49.62C116.24 47.295 114.905 46.02 113.135 46.02C111.11 46.02 109.775 47.355 109.775 50.055C109.775 52.725 111.155 54.135 113.3 54.135C114.38 54.135 115.49 53.73 116.12 52.89ZM121.308 47.205C121.968 47.205 122.508 47.385 122.988 47.715V51.75C122.493 52.5 121.818 52.89 121.143 52.89C120.168 52.89 119.433 52.29 119.433 50.16C119.433 48.03 120.183 47.205 121.308 47.205ZM121.083 46.02C119.373 46.02 117.978 47.34 117.978 50.16C117.978 52.89 119.133 54.135 120.678 54.135C121.788 54.135 122.568 53.49 123.018 52.755V54H124.428V43.26H122.988V46.515C122.448 46.215 121.848 46.02 121.083 46.02ZM133.649 54.135C135.269 54.135 136.619 53.325 136.619 51.78C136.619 50.325 135.704 49.755 133.844 49.425C132.599 49.155 132.179 48.915 132.179 48.225C132.179 47.475 132.809 47.19 133.559 47.19C134.339 47.19 135.104 47.49 135.779 47.97L136.364 46.965C135.584 46.38 134.579 46.02 133.544 46.02C132.044 46.02 130.799 46.875 130.799 48.345C130.799 49.815 131.774 50.415 133.604 50.745C134.819 51 135.254 51.195 135.254 51.915C135.254 52.71 134.504 52.98 133.664 52.98C132.794 52.98 131.894 52.695 131.174 52.155L130.589 53.175C131.429 53.805 132.524 54.135 133.649 54.135ZM143.381 46.17V51.525C142.916 52.365 142.196 52.89 141.386 52.89C140.561 52.89 140.036 52.35 140.036 51.255V46.17H138.581V51.525C138.581 53.13 139.481 54.135 140.921 54.135C142.031 54.135 142.811 53.625 143.396 52.65V54H144.836V46.17H143.381ZM148.813 54V48.495C149.308 47.73 150.058 47.34 150.838 47.34C151.138 47.34 151.438 47.4 151.648 47.475L151.888 46.2C151.663 46.095 151.333 46.035 151.033 46.035C150.013 46.035 149.293 46.635 148.798 47.505V46.17H147.358V54H148.813ZM154.101 54H155.571V47.34H157.716V46.17H155.571V45.525C155.571 44.22 156.666 44.265 157.581 44.565L157.836 43.5C156.021 42.885 154.101 43.56 154.101 45.495V46.17H152.571V47.34H154.101V54ZM161.795 53.04C160.91 53.04 160.43 52.59 160.43 51.765C160.43 50.94 160.97 50.58 161.735 50.58H163.55V52.215C163.1 52.695 162.485 53.04 161.795 53.04ZM166.01 53.985V52.875C165.35 53.07 164.945 52.83 164.945 52.125V48.555C164.945 46.965 163.775 46.02 162.17 46.02C160.745 46.02 159.77 46.62 159.245 47.82L160.355 48.405C160.745 47.475 161.21 47.145 162.065 47.145C163.04 47.145 163.535 47.715 163.535 48.69V49.575H161.615C160.04 49.575 159.035 50.43 159.035 51.87C159.035 53.325 160.055 54.135 161.39 54.135C162.41 54.135 163.31 53.655 163.925 52.95C164.09 53.835 165.02 54.21 166.01 53.985ZM170.497 54.135C172.027 54.135 173.032 53.415 173.482 51.96L172.147 51.54C171.862 52.635 171.337 52.965 170.497 52.965C169.282 52.965 168.667 52.11 168.667 50.07C168.667 48.075 169.282 47.205 170.497 47.205C171.307 47.205 171.862 47.58 172.147 48.66L173.482 48.255C173.047 46.785 171.982 46.02 170.497 46.02C168.472 46.02 167.212 47.385 167.212 50.07C167.212 52.8 168.457 54.135 170.497 54.135ZM178.393 47.145C179.368 47.145 180.088 47.76 180.103 49.365H176.518C176.653 47.79 177.283 47.145 178.393 47.145ZM181.408 52.89L180.553 52.05C180.043 52.725 179.428 52.995 178.618 52.995C177.298 52.995 176.593 52.185 176.503 50.445H181.528V49.62C181.528 47.295 180.193 46.02 178.423 46.02C176.398 46.02 175.063 47.355 175.063 50.055C175.063 52.725 176.443 54.135 178.588 54.135C179.668 54.135 180.778 53.73 181.408 52.89ZM186.236 54.135C187.856 54.135 189.206 53.325 189.206 51.78C189.206 50.325 188.291 49.755 186.431 49.425C185.186 49.155 184.766 48.915 184.766 48.225C184.766 47.475 185.396 47.19 186.146 47.19C186.926 47.19 187.691 47.49 188.366 47.97L188.951 46.965C188.171 46.38 187.166 46.02 186.131 46.02C184.631 46.02 183.386 46.875 183.386 48.345C183.386 49.815 184.361 50.415 186.191 50.745C187.406 51 187.841 51.195 187.841 51.915C187.841 52.71 187.091 52.98 186.251 52.98C185.381 52.98 184.481 52.695 183.761 52.155L183.176 53.175C184.016 53.805 185.111 54.135 186.236 54.135Z" fill="white"/>
</svg>
