<svg width="922" height="527" viewBox="0 0 922 527" fill="none" xmlns="http://www.w3.org/2000/svg">
<path d="M642 182L592 132" stroke="#808080" stroke-width="4"/>
<rect x="642" y="63" width="81" height="120" fill="white"/>
<path d="M723 63L723 183" stroke="#808080" stroke-width="4"/>
<path d="M604.5 91.5C312 91.5 372.604 382.735 135 382.735" stroke="#4F4F4F" stroke-width="5"/>
<path d="M884 322C664.5 293 423 417 133 393" stroke="#4F4F4F" stroke-width="5"/>
<path d="M872.5 246C564.5 246 538 388.235 135 388.235" stroke="#4F4F4F" stroke-width="5"/>
<path d="M52 473L2 423" stroke="black" stroke-width="4"/>
<rect x="52" y="354" width="81" height="120" fill="white"/>
<path d="M133 354L133 474" stroke="black" stroke-width="4"/>
<path d="M53.0945 347V345.638H55.08V340.725H53.0945V339.364H56.8618V345.638H58.8473V347H53.0945ZM56.0473 338.053C55.6824 338.053 55.3855 337.998 55.1564 337.887C54.9358 337.768 54.8255 337.552 54.8255 337.238V337.111C54.8255 336.797 54.9358 336.581 55.1564 336.462C55.3855 336.335 55.6824 336.271 56.0473 336.271C56.4121 336.271 56.7048 336.335 56.9255 336.462C57.1545 336.581 57.2691 336.797 57.2691 337.111V337.238C57.2691 337.552 57.1545 337.768 56.9255 337.887C56.6964 337.998 56.4036 338.053 56.0473 338.053ZM60.9743 347V339.364H62.7561V340.509H63.0743C63.2355 340.11 63.4858 339.801 63.8252 339.58C64.1646 339.351 64.5506 339.236 64.9834 339.236C65.5688 339.236 66.027 339.444 66.3579 339.86C66.6888 340.267 66.8543 340.836 66.8543 341.565V347H65.0725V341.896C65.0725 341.506 64.9961 341.209 64.8434 341.005C64.6991 340.793 64.487 340.687 64.207 340.687C63.9355 340.687 63.6725 340.772 63.4179 340.942C63.1718 341.112 62.9512 341.358 62.7561 341.68V347H60.9743ZM71.6158 345.676C71.8873 345.676 72.1334 345.6 72.354 345.447C72.5831 345.295 72.8037 345.061 73.0158 344.747V341.018C72.8291 340.874 72.6425 340.768 72.4558 340.7C72.2691 340.632 72.0697 340.598 71.8576 340.598C71.4504 340.598 71.1534 340.713 70.9667 340.942C70.7885 341.162 70.6994 341.515 70.6994 341.998V344.34C70.6994 344.798 70.7758 345.138 70.9285 345.358C71.0813 345.57 71.3104 345.676 71.6158 345.676ZM72.6976 345.855C72.5619 346.236 72.337 346.546 72.0231 346.784C71.7091 347.013 71.3273 347.127 70.8776 347.127C70.2413 347.127 69.7534 346.885 69.414 346.402C69.0831 345.918 68.9176 345.29 68.9176 344.518V341.985C68.9176 341.128 69.151 340.458 69.6176 339.975C70.0928 339.491 70.7461 339.249 71.5776 339.249C71.8322 339.249 72.0825 339.279 72.3285 339.338C72.5746 339.398 72.8037 339.482 73.0158 339.593V336.818H74.7976V347H73.0158V345.855H72.6976ZM82.8174 345.282C82.6052 345.944 82.2786 346.419 81.8374 346.707C81.4046 346.987 80.7513 347.127 79.8774 347.127C78.961 347.127 78.227 346.894 77.6755 346.427C77.1325 345.952 76.861 345.273 76.861 344.391V341.96C76.861 341.086 77.1283 340.416 77.6628 339.949C78.2058 339.474 78.9228 339.236 79.8137 339.236C80.7131 339.236 81.4258 339.478 81.9519 339.962C82.478 340.445 82.741 341.15 82.741 342.075V343.525H78.6428V344.455C78.6428 344.938 78.7404 345.295 78.9355 345.524C79.1392 345.753 79.4658 345.867 79.9155 345.867C80.3058 345.867 80.607 345.791 80.8192 345.638C81.0313 345.485 81.1925 345.222 81.3028 344.849L82.8174 345.282ZM78.6428 341.871V342.456H80.9592V341.96C80.9592 341.425 80.8701 341.044 80.6919 340.815C80.5137 340.585 80.2167 340.471 79.801 340.471C79.3852 340.471 79.0883 340.581 78.9101 340.802C78.7319 341.022 78.6428 341.379 78.6428 341.871ZM89.0553 347L87.6553 344.556L86.3825 347H84.5753L86.8534 343.131L84.7153 339.364H86.5353L87.7953 341.565L88.9662 339.364H90.7734L88.6353 343.042L90.888 347H89.0553ZM95.7004 347.127C95.2592 347.127 94.9029 347.021 94.6313 346.809C94.3598 346.597 94.2241 346.283 94.2241 345.867V345.231C94.2241 344.798 94.3598 344.476 94.6313 344.264C94.9029 344.052 95.2592 343.945 95.7004 343.945C96.1332 343.945 96.481 344.052 96.7441 344.264C97.0156 344.476 97.1513 344.798 97.1513 345.231V345.867C97.1513 346.283 97.0113 346.597 96.7313 346.809C96.4598 347.021 96.1162 347.127 95.7004 347.127ZM100.691 347V336.818H102.473V340.509H102.791C102.935 340.119 103.173 339.809 103.504 339.58C103.843 339.351 104.233 339.236 104.675 339.236C105.26 339.236 105.723 339.448 106.062 339.873C106.401 340.288 106.571 340.853 106.571 341.565V347H104.789V341.922C104.789 341.523 104.713 341.218 104.56 341.005C104.416 340.793 104.204 340.687 103.924 340.687C103.652 340.687 103.393 340.776 103.147 340.955C102.901 341.133 102.677 341.387 102.473 341.718V347H100.691ZM112.758 347.127C111.927 347.127 111.282 346.902 110.824 346.453C110.365 346.003 110.136 345.375 110.136 344.569V340.725H108.545V339.364H110.136V336.818H111.918V339.364H114.387V340.725H111.918V344.404C111.918 344.836 112.007 345.163 112.185 345.384C112.372 345.604 112.639 345.715 112.987 345.715C113.225 345.715 113.454 345.689 113.674 345.638C113.895 345.587 114.094 345.528 114.273 345.46L114.489 346.822C114.311 346.907 114.065 346.979 113.751 347.038C113.437 347.098 113.106 347.127 112.758 347.127ZM117.685 341.425V347H116.209V339.364H117.672V340.344H117.965C118.084 339.979 118.245 339.707 118.449 339.529C118.652 339.351 118.886 339.262 119.149 339.262C119.412 339.262 119.628 339.351 119.798 339.529C119.976 339.707 120.099 339.979 120.167 340.344H120.447C120.566 339.979 120.731 339.707 120.943 339.529C121.155 339.351 121.41 339.262 121.707 339.262C122.072 339.262 122.347 339.419 122.534 339.733C122.729 340.038 122.827 340.484 122.827 341.069V347H121.351V341.311C121.351 341.039 121.321 340.832 121.261 340.687C121.202 340.543 121.113 340.471 120.994 340.471C120.867 340.471 120.735 340.56 120.6 340.738C120.472 340.908 120.349 341.137 120.231 341.425V347H118.805V341.311C118.805 341.031 118.775 340.823 118.716 340.687C118.665 340.543 118.576 340.471 118.449 340.471C118.321 340.471 118.194 340.556 118.067 340.725C117.94 340.887 117.812 341.12 117.685 341.425ZM124.661 347V345.638H126.71V338.18H124.661V336.818H128.505V345.638H130.478V347H124.661Z" fill="black"/>
<rect x="54" y="354" width="26" height="4" fill="black"/>
<rect x="55" y="358" width="28" height="4" fill="black"/>
<rect x="58" y="362" width="15" height="4" fill="black"/>
<rect x="59" y="366" width="11" height="4" fill="black"/>
<rect x="59" y="370" width="21" height="4" fill="black"/>
<rect x="57" y="374" width="17" height="4" fill="black"/>
<rect x="56" y="378" width="17" height="4" fill="black"/>
<rect x="57" y="382" width="22" height="4" fill="black"/>
<rect x="57" y="386" width="21" height="4" fill="black"/>
<rect x="57" y="390" width="26" height="4" fill="black"/>
<rect x="57" y="394" width="24" height="4" fill="black"/>
<rect x="57" y="398" width="22" height="4" fill="black"/>
<rect x="56" y="402" width="22" height="4" fill="black"/>
<rect x="57" y="406" width="30" height="4" fill="black"/>
<rect x="57" y="410" width="23" height="4" fill="black"/>
<rect x="56" y="414" width="21" height="4" fill="black"/>
<rect x="57" y="418" width="24" height="4" fill="black"/>
<rect x="57" y="422" width="31" height="4" fill="black"/>
<rect x="57" y="426" width="23" height="4" fill="black"/>
<rect x="57" y="430" width="30" height="4" fill="black"/>
<rect x="57" y="434" width="25" height="4" fill="black"/>
<rect x="58" y="438" width="11" height="4" fill="black"/>
<rect x="59" y="442" width="19" height="4" fill="black"/>
<rect x="57" y="446" width="11" height="4" fill="black"/>
<rect x="57" y="450" width="30" height="4" fill="black"/>
<rect x="57" y="454" width="30" height="4" fill="black"/>
<rect x="56" y="458" width="24" height="4" fill="black"/>
<rect x="56" y="462" width="27" height="4" fill="black"/>
<rect x="56" y="466" width="17" height="4" fill="black"/>
<rect x="58" y="470" width="10" height="4" fill="black"/>
<path d="M456.545 177.091L505.127 31.6364H518.218L469.636 177.091H456.545Z" fill="#4F4F4F"/>
<path d="M456.545 177.091L505.127 31.6364H518.218L469.636 177.091H456.545Z" fill="#787878"/>
<path d="M645.945 56.1145C645.385 56.1145 644.838 56.0297 644.304 55.86C643.769 55.6903 643.311 55.4655 642.929 55.1855L643.4 54.0018C643.782 54.2479 644.198 54.4515 644.647 54.6127C645.105 54.7655 645.538 54.8418 645.945 54.8418C646.336 54.8418 646.641 54.7739 646.862 54.6382C647.082 54.5024 647.193 54.2776 647.193 53.9636C647.193 53.6327 647.087 53.3994 646.875 53.2636C646.671 53.1279 646.264 52.9836 645.653 52.8309C644.77 52.6188 644.13 52.3473 643.731 52.0164C643.332 51.677 643.133 51.1806 643.133 50.5273C643.133 49.8145 643.383 49.2545 643.884 48.8473C644.384 48.44 645.042 48.2364 645.856 48.2364C646.365 48.2364 646.862 48.317 647.345 48.4782C647.829 48.6394 648.253 48.8515 648.618 49.1145L648.211 50.2727C647.855 50.0521 647.481 49.8697 647.091 49.7255C646.709 49.5812 646.336 49.5091 645.971 49.5091C645.64 49.5091 645.381 49.577 645.195 49.7127C645.008 49.84 644.915 50.0521 644.915 50.3491C644.915 50.663 645.033 50.8879 645.271 51.0236C645.508 51.1594 645.971 51.3206 646.658 51.5073C647.49 51.7024 648.084 51.9739 648.44 52.3218C648.796 52.6697 648.975 53.1618 648.975 53.7982C648.975 54.5109 648.699 55.0752 648.147 55.4909C647.604 55.9067 646.87 56.1145 645.945 56.1145ZM655.098 56.1273C654.266 56.1273 653.622 55.9024 653.163 55.4527C652.705 55.003 652.476 54.3752 652.476 53.5691V49.7255H650.885V48.3636H652.476V45.8182H654.258V48.3636H656.727V49.7255H654.258V53.4036C654.258 53.8364 654.347 54.163 654.525 54.3836C654.712 54.6042 654.979 54.7145 655.327 54.7145C655.565 54.7145 655.794 54.6891 656.014 54.6382C656.235 54.5873 656.434 54.5279 656.612 54.46L656.829 55.8218C656.651 55.9067 656.405 55.9788 656.091 56.0382C655.777 56.0976 655.446 56.1273 655.098 56.1273ZM660.165 58.6473C659.944 58.6473 659.707 58.6345 659.452 58.6091C659.206 58.5836 658.943 58.5497 658.663 58.5073L658.803 57.1455C659.058 57.2048 659.287 57.2473 659.49 57.2727C659.694 57.2982 659.876 57.3109 660.038 57.3109C660.453 57.3109 660.772 57.2048 660.992 56.9927C661.221 56.7891 661.399 56.4455 661.527 55.9618L661.552 55.8218H660.47L658.561 48.3636H660.394L661.87 54.5236L663.372 48.3636H665.141L663.092 56.1018C662.855 57.0182 662.494 57.6715 662.01 58.0618C661.535 58.4521 660.92 58.6473 660.165 58.6473ZM667.001 56V54.6382H669.05V47.18H667.001V45.8182H670.845V54.6382H672.817V56H667.001ZM680.761 54.2818C680.549 54.9436 680.222 55.4188 679.781 55.7073C679.348 55.9873 678.695 56.1273 677.821 56.1273C676.904 56.1273 676.17 55.8939 675.619 55.4273C675.076 54.9521 674.804 54.2733 674.804 53.3909V50.96C674.804 50.0861 675.072 49.4158 675.606 48.9491C676.149 48.4739 676.866 48.2364 677.757 48.2364C678.656 48.2364 679.369 48.4782 679.895 48.9618C680.421 49.4455 680.684 50.1497 680.684 51.0745V52.5255H676.586V53.4545C676.586 53.9382 676.684 54.2945 676.879 54.5236C677.083 54.7527 677.409 54.8673 677.859 54.8673C678.249 54.8673 678.55 54.7909 678.763 54.6382C678.975 54.4855 679.136 54.2224 679.246 53.8491L680.761 54.2818ZM676.586 50.8709V51.4564H678.903V50.96C678.903 50.4255 678.813 50.0436 678.635 49.8145C678.457 49.5855 678.16 49.4709 677.744 49.4709C677.329 49.4709 677.032 49.5812 676.853 49.8018C676.675 50.0224 676.586 50.3788 676.586 50.8709ZM685.7 56.1273C685.259 56.1273 684.903 56.0212 684.631 55.8091C684.36 55.597 684.224 55.283 684.224 54.8673V54.2309C684.224 53.7982 684.36 53.4758 684.631 53.2636C684.903 53.0515 685.259 52.9455 685.7 52.9455C686.133 52.9455 686.481 53.0515 686.744 53.2636C687.016 53.4758 687.151 53.7982 687.151 54.2309V54.8673C687.151 55.283 687.011 55.597 686.731 55.8091C686.46 56.0212 686.116 56.1273 685.7 56.1273ZM693.746 56.1273C692.744 56.1273 691.985 55.8897 691.467 55.4145C690.95 54.9309 690.691 54.2479 690.691 53.3655V51.0109C690.691 50.1285 690.95 49.4455 691.467 48.9618C691.993 48.4782 692.749 48.2364 693.733 48.2364C694.641 48.2364 695.328 48.4612 695.795 48.9109C696.261 49.3606 696.537 50.0394 696.622 50.9473L694.904 51.0618C694.87 50.5103 694.76 50.1327 694.573 49.9291C694.386 49.717 694.089 49.6109 693.682 49.6109C693.266 49.6109 692.961 49.7212 692.766 49.9418C692.57 50.1624 692.473 50.54 692.473 51.0745V53.3145C692.473 53.8406 692.57 54.2139 692.766 54.4345C692.961 54.6552 693.275 54.7655 693.707 54.7655C694.115 54.7655 694.407 54.6806 694.586 54.5109C694.764 54.3327 694.87 54.0145 694.904 53.5564L696.622 53.6709C696.571 54.5024 696.317 55.1218 695.858 55.5291C695.409 55.9279 694.704 56.1273 693.746 56.1273ZM701.549 56.1145C700.989 56.1145 700.442 56.0297 699.907 55.86C699.373 55.6903 698.914 55.4655 698.533 55.1855L699.004 54.0018C699.385 54.2479 699.801 54.4515 700.251 54.6127C700.709 54.7655 701.142 54.8418 701.549 54.8418C701.939 54.8418 702.245 54.7739 702.465 54.6382C702.686 54.5024 702.796 54.2776 702.796 53.9636C702.796 53.6327 702.69 53.3994 702.478 53.2636C702.274 53.1279 701.867 52.9836 701.256 52.8309C700.374 52.6188 699.733 52.3473 699.334 52.0164C698.936 51.677 698.736 51.1806 698.736 50.5273C698.736 49.8145 698.987 49.2545 699.487 48.8473C699.988 48.44 700.645 48.2364 701.46 48.2364C701.969 48.2364 702.465 48.317 702.949 48.4782C703.433 48.6394 703.857 48.8515 704.222 49.1145L703.814 50.2727C703.458 50.0521 703.085 49.8697 702.694 49.7255C702.313 49.5812 701.939 49.5091 701.574 49.5091C701.244 49.5091 700.985 49.577 700.798 49.7127C700.611 49.84 700.518 50.0521 700.518 50.3491C700.518 50.663 700.637 50.8879 700.874 51.0236C701.112 51.1594 701.574 51.3206 702.262 51.5073C703.093 51.7024 703.687 51.9739 704.044 52.3218C704.4 52.6697 704.578 53.1618 704.578 53.7982C704.578 54.5109 704.302 55.0752 703.751 55.4909C703.208 55.9067 702.474 56.1145 701.549 56.1145ZM709.492 56.1145C708.932 56.1145 708.385 56.0297 707.851 55.86C707.316 55.6903 706.858 55.4655 706.476 55.1855L706.947 54.0018C707.329 54.2479 707.744 54.4515 708.194 54.6127C708.652 54.7655 709.085 54.8418 709.492 54.8418C709.883 54.8418 710.188 54.7739 710.409 54.6382C710.629 54.5024 710.74 54.2776 710.74 53.9636C710.74 53.6327 710.634 53.3994 710.421 53.2636C710.218 53.1279 709.811 52.9836 709.2 52.8309C708.317 52.6188 707.677 52.3473 707.278 52.0164C706.879 51.677 706.68 51.1806 706.68 50.5273C706.68 49.8145 706.93 49.2545 707.431 48.8473C707.931 48.44 708.589 48.2364 709.403 48.2364C709.912 48.2364 710.409 48.317 710.892 48.4782C711.376 48.6394 711.8 48.8515 712.165 49.1145L711.758 50.2727C711.401 50.0521 711.028 49.8697 710.638 49.7255C710.256 49.5812 709.883 49.5091 709.518 49.5091C709.187 49.5091 708.928 49.577 708.741 49.7127C708.555 49.84 708.461 50.0521 708.461 50.3491C708.461 50.663 708.58 50.8879 708.818 51.0236C709.055 51.1594 709.518 51.3206 710.205 51.5073C711.037 51.7024 711.631 51.9739 711.987 52.3218C712.343 52.6697 712.521 53.1618 712.521 53.7982C712.521 54.5109 712.246 55.0752 711.694 55.4909C711.151 55.9067 710.417 56.1145 709.492 56.1145Z" fill="black"/>
<rect x="643" y="63" width="19" height="4" fill="#C4C4C4"/>
<rect x="643" y="67" width="17" height="4" fill="#C4C4C4"/>
<rect x="643" y="71" width="15" height="4" fill="#C4C4C4"/>
<rect x="644" y="75" width="16" height="4" fill="#C4C4C4"/>
<rect x="643" y="79" width="7" height="4" fill="#C4C4C4"/>
<rect x="642" y="83" width="5" height="4" fill="#C4C4C4"/>
<rect x="643" y="87" width="6" height="4" fill="#C4C4C4"/>
<rect x="643" y="91" width="8" height="4" fill="#C4C4C4"/>
<rect x="643" y="95" width="8" height="4" fill="#C4C4C4"/>
<rect x="642" y="99" width="7" height="4" fill="#C4C4C4"/>
<rect x="643" y="103" width="9" height="4" fill="#C4C4C4"/>
<rect x="643" y="107" width="7" height="4" fill="#C4C4C4"/>
<rect x="643" y="111" width="4" height="4" fill="#C4C4C4"/>
<rect x="643" y="115" width="12" height="4" fill="#C4C4C4"/>
<rect x="643" y="119" width="6" height="4" fill="#C4C4C4"/>
<rect x="643" y="123" width="11" height="4" fill="#C4C4C4"/>
<rect x="643" y="127" width="12" height="4" fill="#C4C4C4"/>
<rect x="642" y="131" width="9" height="4" fill="#C4C4C4"/>
<rect x="643" y="135" width="17" height="4" fill="#C4C4C4"/>
<rect x="642" y="139" width="8" height="4" fill="#C4C4C4"/>
<rect x="643" y="143" width="7" height="4" fill="#C4C4C4"/>
<rect x="643" y="147" width="14" height="4" fill="#C4C4C4"/>
<rect x="643" y="151" width="9" height="4" fill="#C4C4C4"/>
<rect x="643" y="155" width="7" height="4" fill="#C4C4C4"/>
<rect x="643" y="159" width="4" height="4" fill="#C4C4C4"/>
<rect x="643" y="163" width="9" height="4" fill="#C4C4C4"/>
<rect x="642" y="167" width="9" height="4" fill="#C4C4C4"/>
<rect x="643" y="171" width="7" height="4" fill="#C4C4C4"/>
<rect x="643" y="175" width="9" height="4" fill="#C4C4C4"/>
<rect x="643" y="179" width="8" height="4" fill="#C4C4C4"/>
<path d="M688.545 367.091L737.127 221.636H750.218L701.636 367.091H688.545Z" fill="#4F4F4F"/>
<path d="M688.545 367.091L737.127 221.636H750.218L701.636 367.091H688.545Z" fill="#787878"/>
</svg>
