<svg width="154" height="147" viewBox="0 0 154 147" fill="none" xmlns="http://www.w3.org/2000/svg">
<rect x="53.2625" y="113.068" width="1.89117" height="1.89117" transform="rotate(-12.2533 53.2625 113.068)" fill="#C4C4C4"/>
<rect x="52.8611" y="111.219" width="1.89117" height="1.89117" transform="rotate(-12.2533 52.8611 111.219)" fill="#C4C4C4"/>
<rect x="54.7092" y="110.818" width="1.89117" height="1.89117" transform="rotate(-12.2533 54.7092 110.818)" fill="#C4C4C4"/>
<rect x="56.5571" y="110.417" width="1.89117" height="1.89117" transform="rotate(-12.2533 56.5571 110.417)" fill="#C4C4C4"/>
<rect x="54.3079" y="108.97" width="1.89117" height="1.89117" transform="rotate(-12.2533 54.3079 108.97)" fill="#C4C4C4"/>
<rect x="51.4143" y="113.469" width="1.89117" height="1.89117" transform="rotate(-12.2533 51.4143 113.469)" fill="#C4C4C4"/>
<rect x="51.8157" y="115.317" width="1.89117" height="1.89117" transform="rotate(-12.2533 51.8157 115.317)" fill="#C4C4C4"/>
<rect x="53.6638" y="114.916" width="1.89117" height="1.89117" transform="rotate(-12.2533 53.6638 114.916)" fill="#C4C4C4"/>
<rect x="54.0652" y="116.764" width="1.89117" height="1.89117" transform="rotate(-12.2533 54.0652 116.764)" fill="#C4C4C4"/>
<rect x="55.9131" y="116.362" width="1.89117" height="1.89117" transform="rotate(-12.2533 55.9131 116.362)" fill="#C4C4C4"/>
<rect x="56.9585" y="112.265" width="1.89117" height="1.89117" transform="rotate(-12.2533 56.9585 112.265)" fill="#C4C4C4"/>
<rect x="57.3599" y="114.113" width="1.89117" height="1.89117" transform="rotate(-12.2533 57.3599 114.113)" fill="#C4C4C4"/>
<rect x="57.7612" y="115.961" width="1.89117" height="1.89117" transform="rotate(-12.2533 57.7612 115.961)" fill="#C4C4C4"/>
<rect x="58.1626" y="117.809" width="1.89117" height="1.89117" transform="rotate(-12.2533 58.1626 117.809)" fill="#C4C4C4"/>
<rect x="54.4666" y="118.612" width="1.89117" height="1.89117" transform="rotate(-12.2533 54.4666 118.612)" fill="#C4C4C4"/>
<rect x="57.1174" y="121.907" width="1.89117" height="1.89117" transform="rotate(-12.2533 57.1174 121.907)" fill="#C4C4C4"/>
<rect x="59.208" y="113.711" width="1.89117" height="1.89117" transform="rotate(-12.2533 59.208 113.711)" fill="#C4C4C4"/>
<rect x="58.8066" y="111.863" width="1.89117" height="1.89117" transform="rotate(-12.2533 58.8066 111.863)" fill="#C4C4C4"/>
<rect x="55.1106" y="112.666" width="1.89117" height="1.89117" transform="rotate(-12.2533 55.1106 112.666)" fill="black"/>
<rect x="55.512" y="114.514" width="1.89117" height="1.89117" transform="rotate(-12.2533 55.512 114.514)" fill="black"/>
<rect x="56.3145" y="118.21" width="1.89117" height="1.89117" transform="rotate(-12.2533 56.3145 118.21)" fill="#C4C4C4"/>
<rect x="56.7161" y="120.058" width="1.89117" height="1.89117" transform="rotate(-12.2533 56.7161 120.058)" fill="#C4C4C4"/>
<rect x="6.90967" y="30.0667" width="1.89117" height="1.89117" transform="rotate(-12.2533 6.90967 30.0667)" fill="#C4C4C4"/>
<rect x="6.5083" y="28.2186" width="1.89117" height="1.89117" transform="rotate(-12.2533 6.5083 28.2186)" fill="#C4C4C4"/>
<rect x="8.35645" y="27.8172" width="1.89117" height="1.89117" transform="rotate(-12.2533 8.35645 27.8172)" fill="#C4C4C4"/>
<rect x="10.2043" y="27.4158" width="1.89117" height="1.89117" transform="rotate(-12.2533 10.2043 27.4158)" fill="#C4C4C4"/>
<rect x="7.95483" y="25.9691" width="1.89117" height="1.89117" transform="rotate(-12.2533 7.95483 25.9691)" fill="#C4C4C4"/>
<rect x="5.06152" y="30.468" width="1.89117" height="1.89117" transform="rotate(-12.2533 5.06152 30.468)" fill="#C4C4C4"/>
<rect x="5.46289" y="32.3161" width="1.89117" height="1.89117" transform="rotate(-12.2533 5.46289 32.3161)" fill="#C4C4C4"/>
<rect x="7.31104" y="31.9147" width="1.89117" height="1.89117" transform="rotate(-12.2533 7.31104 31.9147)" fill="#C4C4C4"/>
<rect x="7.7124" y="33.7628" width="1.89117" height="1.89117" transform="rotate(-12.2533 7.7124 33.7628)" fill="#C4C4C4"/>
<rect x="9.56055" y="33.3615" width="1.89117" height="1.89117" transform="rotate(-12.2533 9.56055 33.3615)" fill="#C4C4C4"/>
<rect x="10.6057" y="29.2639" width="1.89117" height="1.89117" transform="rotate(-12.2533 10.6057 29.2639)" fill="#C4C4C4"/>
<rect x="11.0073" y="31.112" width="1.89117" height="1.89117" transform="rotate(-12.2533 11.0073 31.112)" fill="#C4C4C4"/>
<rect x="11.4087" y="32.9601" width="1.89117" height="1.89117" transform="rotate(-12.2533 11.4087 32.9601)" fill="#C4C4C4"/>
<rect x="11.8098" y="34.8082" width="1.89117" height="1.89117" transform="rotate(-12.2533 11.8098 34.8082)" fill="#C4C4C4"/>
<rect x="8.11377" y="35.6109" width="1.89117" height="1.89117" transform="rotate(-12.2533 8.11377 35.6109)" fill="#C4C4C4"/>
<rect x="10.7646" y="38.9057" width="1.89117" height="1.89117" transform="rotate(-12.2533 10.7646 38.9057)" fill="#C4C4C4"/>
<rect x="12.8552" y="30.7107" width="1.89117" height="1.89117" transform="rotate(-12.2533 12.8552 30.7107)" fill="#C4C4C4"/>
<rect x="12.4539" y="28.8625" width="1.89117" height="1.89117" transform="rotate(-12.2533 12.4539 28.8625)" fill="#C4C4C4"/>
<rect x="8.75781" y="29.6653" width="1.89117" height="1.89117" transform="rotate(-12.2533 8.75781 29.6653)" fill="black"/>
<rect x="9.15918" y="31.5134" width="1.89117" height="1.89117" transform="rotate(-12.2533 9.15918 31.5134)" fill="black"/>
<rect x="9.96191" y="35.2095" width="1.89117" height="1.89117" transform="rotate(-12.2533 9.96191 35.2095)" fill="#C4C4C4"/>
<rect x="10.3633" y="37.0576" width="1.89117" height="1.89117" transform="rotate(-12.2533 10.3633 37.0576)" fill="#C4C4C4"/>
<rect x="10.7581" y="68.2692" width="1.89117" height="1.89117" transform="rotate(-12.2533 10.7581 68.2692)" fill="#C4C4C4"/>
<rect x="10.3567" y="66.4211" width="1.89117" height="1.89117" transform="rotate(-12.2533 10.3567 66.4211)" fill="#C4C4C4"/>
<rect x="12.2048" y="66.0198" width="1.89117" height="1.89117" transform="rotate(-12.2533 12.2048 66.0198)" fill="#C4C4C4"/>
<rect x="14.053" y="65.6184" width="1.89117" height="1.89117" transform="rotate(-12.2533 14.053 65.6184)" fill="#C4C4C4"/>
<rect x="11.8035" y="64.1717" width="1.89117" height="1.89117" transform="rotate(-12.2533 11.8035 64.1717)" fill="#C4C4C4"/>
<rect x="8.90991" y="68.6706" width="1.89117" height="1.89117" transform="rotate(-12.2533 8.90991 68.6706)" fill="#C4C4C4"/>
<rect x="9.31128" y="70.5187" width="1.89117" height="1.89117" transform="rotate(-12.2533 9.31128 70.5187)" fill="#C4C4C4"/>
<rect x="11.1594" y="70.1173" width="1.89117" height="1.89117" transform="rotate(-12.2533 11.1594 70.1173)" fill="#C4C4C4"/>
<rect x="11.5608" y="71.9654" width="1.89117" height="1.89117" transform="rotate(-12.2533 11.5608 71.9654)" fill="#C4C4C4"/>
<rect x="13.4089" y="71.564" width="1.89117" height="1.89117" transform="rotate(-12.2533 13.4089 71.564)" fill="#C4C4C4"/>
<rect x="14.4543" y="67.4665" width="1.89117" height="1.89117" transform="rotate(-12.2533 14.4543 67.4665)" fill="#C4C4C4"/>
<rect x="14.8555" y="69.3146" width="1.89117" height="1.89117" transform="rotate(-12.2533 14.8555 69.3146)" fill="#C4C4C4"/>
<rect x="15.2568" y="71.1627" width="1.89117" height="1.89117" transform="rotate(-12.2533 15.2568 71.1627)" fill="#C4C4C4"/>
<rect x="15.6584" y="73.0107" width="1.89117" height="1.89117" transform="rotate(-12.2533 15.6584 73.0107)" fill="#C4C4C4"/>
<rect x="11.9622" y="73.8135" width="1.89117" height="1.89117" transform="rotate(-12.2533 11.9622 73.8135)" fill="#C4C4C4"/>
<rect x="14.613" y="77.1083" width="1.89117" height="1.89117" transform="rotate(-12.2533 14.613 77.1083)" fill="#C4C4C4"/>
<rect x="16.7036" y="68.9132" width="1.89117" height="1.89117" transform="rotate(-12.2533 16.7036 68.9132)" fill="#C4C4C4"/>
<rect x="16.3022" y="67.0651" width="1.89117" height="1.89117" transform="rotate(-12.2533 16.3022 67.0651)" fill="#C4C4C4"/>
<rect x="12.6062" y="67.8679" width="1.89117" height="1.89117" transform="rotate(-12.2533 12.6062 67.8679)" fill="black"/>
<rect x="13.0073" y="69.7159" width="1.89117" height="1.89117" transform="rotate(-12.2533 13.0073 69.7159)" fill="black"/>
<rect x="13.8103" y="73.4121" width="1.89117" height="1.89117" transform="rotate(-12.2533 13.8103 73.4121)" fill="#C4C4C4"/>
<rect x="14.2117" y="75.2602" width="1.89117" height="1.89117" transform="rotate(-12.2533 14.2117 75.2602)" fill="#C4C4C4"/>
<rect x="50.9363" y="47.2061" width="1.89117" height="1.89117" transform="rotate(-12.2533 50.9363 47.2061)" fill="#C4C4C4"/>
<rect x="50.5349" y="45.358" width="1.89117" height="1.89117" transform="rotate(-12.2533 50.5349 45.358)" fill="#C4C4C4"/>
<rect x="52.3831" y="44.9566" width="1.89117" height="1.89117" transform="rotate(-12.2533 52.3831 44.9566)" fill="#C4C4C4"/>
<rect x="54.231" y="44.5552" width="1.89117" height="1.89117" transform="rotate(-12.2533 54.231 44.5552)" fill="#C4C4C4"/>
<rect x="51.9817" y="43.1085" width="1.89117" height="1.89117" transform="rotate(-12.2533 51.9817 43.1085)" fill="#C4C4C4"/>
<rect x="49.0881" y="47.6074" width="1.89117" height="1.89117" transform="rotate(-12.2533 49.0881 47.6074)" fill="#C4C4C4"/>
<rect x="49.4895" y="49.4555" width="1.89117" height="1.89117" transform="rotate(-12.2533 49.4895 49.4555)" fill="#C4C4C4"/>
<rect x="51.3376" y="49.0541" width="1.89117" height="1.89117" transform="rotate(-12.2533 51.3376 49.0541)" fill="#C4C4C4"/>
<rect x="51.739" y="50.9022" width="1.89117" height="1.89117" transform="rotate(-12.2533 51.739 50.9022)" fill="#C4C4C4"/>
<rect x="53.5872" y="50.5009" width="1.89117" height="1.89117" transform="rotate(-12.2533 53.5872 50.5009)" fill="#C4C4C4"/>
<rect x="54.6323" y="46.4033" width="1.89117" height="1.89117" transform="rotate(-12.2533 54.6323 46.4033)" fill="#C4C4C4"/>
<rect x="55.0337" y="48.2514" width="1.89117" height="1.89117" transform="rotate(-12.2533 55.0337 48.2514)" fill="#C4C4C4"/>
<rect x="55.4351" y="50.0995" width="1.89117" height="1.89117" transform="rotate(-12.2533 55.4351 50.0995)" fill="#C4C4C4"/>
<rect x="55.8367" y="51.9476" width="1.89117" height="1.89117" transform="rotate(-12.2533 55.8367 51.9476)" fill="#C4C4C4"/>
<rect x="52.1404" y="52.7503" width="1.89117" height="1.89117" transform="rotate(-12.2533 52.1404 52.7503)" fill="#C4C4C4"/>
<rect x="54.7913" y="56.0451" width="1.89117" height="1.89117" transform="rotate(-12.2533 54.7913 56.0451)" fill="#C4C4C4"/>
<rect x="56.8818" y="47.85" width="1.89117" height="1.89117" transform="rotate(-12.2533 56.8818 47.85)" fill="#C4C4C4"/>
<rect x="56.4805" y="46.002" width="1.89117" height="1.89117" transform="rotate(-12.2533 56.4805 46.002)" fill="#C4C4C4"/>
<rect x="52.7844" y="46.8047" width="1.89117" height="1.89117" transform="rotate(-12.2533 52.7844 46.8047)" fill="black"/>
<rect x="53.1855" y="48.6528" width="1.89117" height="1.89117" transform="rotate(-12.2533 53.1855 48.6528)" fill="black"/>
<rect x="53.9885" y="52.3489" width="1.89117" height="1.89117" transform="rotate(-12.2533 53.9885 52.3489)" fill="#C4C4C4"/>
<rect x="54.3899" y="54.197" width="1.89117" height="1.89117" transform="rotate(-12.2533 54.3899 54.197)" fill="#C4C4C4"/>
<rect x="80.9207" y="77.8445" width="1.89117" height="1.89117" transform="rotate(-12.2533 80.9207 77.8445)" fill="#C4C4C4"/>
<rect x="80.5193" y="75.9964" width="1.89117" height="1.89117" transform="rotate(-12.2533 80.5193 75.9964)" fill="#C4C4C4"/>
<rect x="82.3674" y="75.595" width="1.89117" height="1.89117" transform="rotate(-12.2533 82.3674 75.595)" fill="#C4C4C4"/>
<rect x="84.2153" y="75.1937" width="1.89117" height="1.89117" transform="rotate(-12.2533 84.2153 75.1937)" fill="#C4C4C4"/>
<rect x="81.9661" y="73.7469" width="1.89117" height="1.89117" transform="rotate(-12.2533 81.9661 73.7469)" fill="#C4C4C4"/>
<rect x="79.0725" y="78.2458" width="1.89117" height="1.89117" transform="rotate(-12.2533 79.0725 78.2458)" fill="#C4C4C4"/>
<rect x="79.4739" y="80.0939" width="1.89117" height="1.89117" transform="rotate(-12.2533 79.4739 80.0939)" fill="#C4C4C4"/>
<rect x="81.322" y="79.6926" width="1.89117" height="1.89117" transform="rotate(-12.2533 81.322 79.6926)" fill="#C4C4C4"/>
<rect x="81.7234" y="81.5406" width="1.89117" height="1.89117" transform="rotate(-12.2533 81.7234 81.5406)" fill="#C4C4C4"/>
<rect x="83.5715" y="81.1393" width="1.89117" height="1.89117" transform="rotate(-12.2533 83.5715 81.1393)" fill="#C4C4C4"/>
<rect x="84.6169" y="77.0417" width="1.89117" height="1.89117" transform="rotate(-12.2533 84.6169 77.0417)" fill="#C4C4C4"/>
<rect x="85.0183" y="78.8898" width="1.89117" height="1.89117" transform="rotate(-12.2533 85.0183 78.8898)" fill="#C4C4C4"/>
<rect x="85.4197" y="80.7379" width="1.89117" height="1.89117" transform="rotate(-12.2533 85.4197 80.7379)" fill="#C4C4C4"/>
<rect x="85.821" y="82.586" width="1.89117" height="1.89117" transform="rotate(-12.2533 85.821 82.586)" fill="#C4C4C4"/>
<rect x="82.1248" y="83.3887" width="1.89117" height="1.89117" transform="rotate(-12.2533 82.1248 83.3887)" fill="#C4C4C4"/>
<rect x="84.7756" y="86.6835" width="1.89117" height="1.89117" transform="rotate(-12.2533 84.7756 86.6835)" fill="#C4C4C4"/>
<rect x="86.8662" y="78.4885" width="1.89117" height="1.89117" transform="rotate(-12.2533 86.8662 78.4885)" fill="#C4C4C4"/>
<rect x="86.4648" y="76.6404" width="1.89117" height="1.89117" transform="rotate(-12.2533 86.4648 76.6404)" fill="#C4C4C4"/>
<rect x="82.7688" y="77.4431" width="1.89117" height="1.89117" transform="rotate(-12.2533 82.7688 77.4431)" fill="black"/>
<rect x="83.1702" y="79.2912" width="1.89117" height="1.89117" transform="rotate(-12.2533 83.1702 79.2912)" fill="black"/>
<rect x="83.9729" y="82.9874" width="1.89117" height="1.89117" transform="rotate(-12.2533 83.9729 82.9874)" fill="#C4C4C4"/>
<rect x="84.3743" y="84.8354" width="1.89117" height="1.89117" transform="rotate(-12.2533 84.3743 84.8354)" fill="#C4C4C4"/>
<rect x="135.357" y="71.6889" width="1.89117" height="1.89117" transform="rotate(-12.2533 135.357 71.6889)" fill="#C4C4C4"/>
<rect x="134.956" y="69.8408" width="1.89117" height="1.89117" transform="rotate(-12.2533 134.956 69.8408)" fill="#C4C4C4"/>
<rect x="136.804" y="69.4395" width="1.89117" height="1.89117" transform="rotate(-12.2533 136.804 69.4395)" fill="#C4C4C4"/>
<rect x="138.652" y="69.0381" width="1.89117" height="1.89117" transform="rotate(-12.2533 138.652 69.0381)" fill="#C4C4C4"/>
<rect x="136.402" y="67.5914" width="1.89117" height="1.89117" transform="rotate(-12.2533 136.402 67.5914)" fill="#C4C4C4"/>
<rect x="133.509" y="72.0903" width="1.89117" height="1.89117" transform="rotate(-12.2533 133.509 72.0903)" fill="#C4C4C4"/>
<rect x="133.91" y="73.9384" width="1.89117" height="1.89117" transform="rotate(-12.2533 133.91 73.9384)" fill="#C4C4C4"/>
<rect x="135.758" y="73.537" width="1.89117" height="1.89117" transform="rotate(-12.2533 135.758 73.537)" fill="#C4C4C4"/>
<rect x="136.16" y="75.3851" width="1.89117" height="1.89117" transform="rotate(-12.2533 136.16 75.3851)" fill="#C4C4C4"/>
<rect x="138.008" y="74.9837" width="1.89117" height="1.89117" transform="rotate(-12.2533 138.008 74.9837)" fill="#C4C4C4"/>
<rect x="139.053" y="70.8862" width="1.89117" height="1.89117" transform="rotate(-12.2533 139.053 70.8862)" fill="#C4C4C4"/>
<rect x="139.454" y="72.7343" width="1.89117" height="1.89117" transform="rotate(-12.2533 139.454 72.7343)" fill="#C4C4C4"/>
<rect x="139.856" y="74.5823" width="1.89117" height="1.89117" transform="rotate(-12.2533 139.856 74.5823)" fill="#C4C4C4"/>
<rect x="140.257" y="76.4304" width="1.89117" height="1.89117" transform="rotate(-12.2533 140.257 76.4304)" fill="#C4C4C4"/>
<rect x="136.561" y="77.2332" width="1.89117" height="1.89117" transform="rotate(-12.2533 136.561 77.2332)" fill="#C4C4C4"/>
<rect x="139.212" y="80.528" width="1.89117" height="1.89117" transform="rotate(-12.2533 139.212 80.528)" fill="#C4C4C4"/>
<rect x="141.302" y="72.3329" width="1.89117" height="1.89117" transform="rotate(-12.2533 141.302 72.3329)" fill="#C4C4C4"/>
<rect x="140.901" y="70.4848" width="1.89117" height="1.89117" transform="rotate(-12.2533 140.901 70.4848)" fill="#C4C4C4"/>
<rect x="137.205" y="71.2875" width="1.89117" height="1.89117" transform="rotate(-12.2533 137.205 71.2875)" fill="black"/>
<rect x="137.606" y="73.1356" width="1.89117" height="1.89117" transform="rotate(-12.2533 137.606 73.1356)" fill="black"/>
<rect x="138.409" y="76.8318" width="1.89117" height="1.89117" transform="rotate(-12.2533 138.409 76.8318)" fill="#C4C4C4"/>
<rect x="138.811" y="78.6799" width="1.89117" height="1.89117" transform="rotate(-12.2533 138.811 78.6799)" fill="#C4C4C4"/>
<rect x="107.397" y="117.559" width="1.89117" height="1.89117" transform="rotate(-12.2533 107.397 117.559)" fill="#C4C4C4"/>
<rect x="106.996" y="115.711" width="1.89117" height="1.89117" transform="rotate(-12.2533 106.996 115.711)" fill="#C4C4C4"/>
<rect x="108.844" y="115.31" width="1.89117" height="1.89117" transform="rotate(-12.2533 108.844 115.31)" fill="#C4C4C4"/>
<rect x="110.692" y="114.908" width="1.89117" height="1.89117" transform="rotate(-12.2533 110.692 114.908)" fill="#C4C4C4"/>
<rect x="108.442" y="113.461" width="1.89117" height="1.89117" transform="rotate(-12.2533 108.442 113.461)" fill="#C4C4C4"/>
<rect x="105.549" y="117.96" width="1.89117" height="1.89117" transform="rotate(-12.2533 105.549 117.96)" fill="#C4C4C4"/>
<rect x="105.95" y="119.808" width="1.89117" height="1.89117" transform="rotate(-12.2533 105.95 119.808)" fill="#C4C4C4"/>
<rect x="107.798" y="119.407" width="1.89117" height="1.89117" transform="rotate(-12.2533 107.798 119.407)" fill="#C4C4C4"/>
<rect x="108.2" y="121.255" width="1.89117" height="1.89117" transform="rotate(-12.2533 108.2 121.255)" fill="#C4C4C4"/>
<rect x="110.048" y="120.854" width="1.89117" height="1.89117" transform="rotate(-12.2533 110.048 120.854)" fill="#C4C4C4"/>
<rect x="111.093" y="116.756" width="1.89117" height="1.89117" transform="rotate(-12.2533 111.093 116.756)" fill="#C4C4C4"/>
<rect x="111.495" y="118.604" width="1.89117" height="1.89117" transform="rotate(-12.2533 111.495 118.604)" fill="#C4C4C4"/>
<rect x="111.896" y="120.452" width="1.89117" height="1.89117" transform="rotate(-12.2533 111.896 120.452)" fill="#C4C4C4"/>
<rect x="112.297" y="122.301" width="1.89117" height="1.89117" transform="rotate(-12.2533 112.297 122.301)" fill="#C4C4C4"/>
<rect x="108.601" y="123.103" width="1.89117" height="1.89117" transform="rotate(-12.2533 108.601 123.103)" fill="#C4C4C4"/>
<rect x="111.252" y="126.398" width="1.89117" height="1.89117" transform="rotate(-12.2533 111.252 126.398)" fill="#C4C4C4"/>
<rect x="113.343" y="118.203" width="1.89117" height="1.89117" transform="rotate(-12.2533 113.343 118.203)" fill="#C4C4C4"/>
<rect x="112.941" y="116.355" width="1.89117" height="1.89117" transform="rotate(-12.2533 112.941 116.355)" fill="#C4C4C4"/>
<rect x="109.245" y="117.158" width="1.89117" height="1.89117" transform="rotate(-12.2533 109.245 117.158)" fill="black"/>
<rect x="109.646" y="119.006" width="1.89117" height="1.89117" transform="rotate(-12.2533 109.646 119.006)" fill="black"/>
<rect x="110.449" y="122.702" width="1.89117" height="1.89117" transform="rotate(-12.2533 110.449 122.702)" fill="#C4C4C4"/>
<rect x="110.851" y="124.55" width="1.89117" height="1.89117" transform="rotate(-12.2533 110.851 124.55)" fill="#C4C4C4"/>
</svg>
