<svg width="274" height="246" viewBox="0 0 274 246" fill="none" xmlns="http://www.w3.org/2000/svg">
<path d="M98.3463 222.14C92.3532 222.14 87.1025 217.084 87.1025 211.321C87.1025 197.134 108.529 191.5 133.484 185.068C137.861 176.774 141.988 167.783 145.986 159.083C150.83 148.538 155.406 138.58 160.07 130.546C162.063 125.051 164.629 119.562 166.993 115.579C163.512 116.87 159.492 117.521 154.966 117.521C152.857 117.521 150.853 117.381 149.045 117.169C150.714 119.314 152.025 122.557 152.025 127.462C152.025 139.574 141.381 159.663 130.049 159.663C127.233 159.663 124.68 158.146 122.852 155.394C121.362 153.148 120.475 150.229 120.475 147.579C120.475 137.449 123.83 130.662 126.646 126.752C128.405 124.308 130.481 122.249 132.706 120.695C127.741 120.615 122.602 120.039 118.207 119.087C119.369 121.422 119.958 124.183 119.958 127.339C119.958 140.152 111.38 159.525 98.4533 159.525C93.6441 159.525 89.2318 154.651 88.5829 148.966C82.5453 155.978 76.8108 159.525 71.5044 159.525C66.9895 159.525 61.643 156.578 61.2082 142.88C49.2488 151.839 37.6639 156.375 26.7479 156.375C11.6158 156.375 0.202637 140.562 0.202637 119.593C0.202637 95.3743 13.2233 72.7345 36.868 55.8533C62.1469 37.8012 96.5447 28.26 136.34 28.26C161.559 28.26 186.481 35.7895 204.719 48.9171C224.576 63.2066 235.51 83.2771 235.51 105.433C235.51 130.43 224.5 149.377 201.852 163.358C182.517 175.295 158.135 181.569 136.617 187.107L135.344 187.435C126.66 203.713 114.638 222.14 98.3463 222.14ZM131.703 188.376C106.304 194.997 89.8516 200.433 89.8516 211.321C89.8516 215.543 93.8983 219.386 98.344 219.386C109.581 219.386 119.931 209.793 131.703 188.376ZM156.737 142.692C154.037 148.152 151.305 154.094 148.487 160.234C144.824 168.205 141.054 176.419 137.069 184.147C158.112 178.727 181.766 172.523 200.407 161.014C222.177 147.579 232.758 129.395 232.758 105.433C232.758 84.1893 222.23 64.9128 203.114 51.1518C185.333 38.3544 160.995 31.0144 136.343 31.0144C97.1222 31.0144 63.2773 40.3795 38.4688 58.097C15.5689 74.4474 2.95393 96.2865 2.95393 119.593C2.95393 138.992 13.1854 153.623 26.7479 153.623C37.5614 153.623 49.1641 148.835 61.2395 139.389C61.8749 129.953 67.7186 113.313 75.9368 97.6157C80.3937 89.1094 91.74 69.3177 100.821 69.3177C105.525 69.3177 108.335 72.3509 108.335 77.436C108.335 86.7765 89.176 120.541 63.935 140.768C63.935 140.861 63.935 140.955 63.935 141.046C63.935 151.482 66.4834 156.772 71.5066 156.772C76.5522 156.772 82.2911 152.691 88.5718 144.642C89.7401 120.57 105.151 115.596 105.809 115.396C106.319 115.24 106.877 115.393 107.236 115.793C107.592 116.19 107.688 116.761 107.476 117.251C107.407 117.414 100.522 133.517 91.2852 145.63C91.2629 146.252 91.2517 146.888 91.2517 147.539C91.2517 152.2 94.8191 156.775 98.451 156.775C109.151 156.775 117.202 138.921 117.202 127.346C117.202 123.489 116.212 120.372 114.259 118.074C110.399 116.886 107.69 115.407 106.21 113.674C105.847 113.248 105.777 112.639 106.038 112.142C106.297 111.642 106.836 111.352 107.392 111.408C107.592 111.428 112.181 111.921 115.782 115.65C120.818 117.093 127.547 117.954 133.875 117.954C135.845 117.954 137.696 117.869 139.375 117.704C140.115 117.55 140.846 117.459 141.558 117.434C142.278 117.405 142.904 117.956 142.976 118.683C143.043 119.408 142.534 120.062 141.814 120.173C141.179 120.271 140.503 120.356 139.801 120.427C131.754 122.196 123.226 132.288 123.226 147.583C123.226 151.48 125.821 156.915 130.049 156.915C138.96 156.915 149.274 139.095 149.274 127.468C149.274 120.133 146.07 117.294 143.346 116.21C142.024 115.913 141.248 115.683 141.212 115.672C140.541 115.474 140.126 114.8 140.249 114.111C140.374 113.422 140.967 112.933 141.694 112.98C141.803 112.987 142.797 113.063 144.142 113.567C146.677 114.124 150.583 114.776 154.966 114.776C161.283 114.776 166.484 113.429 170.428 110.768C171.115 110.063 171.71 109.653 172.301 109.488C172.928 109.311 173.592 109.601 173.895 110.179C174.194 110.759 174.049 111.468 173.545 111.881C173.126 112.224 172.682 112.561 172.232 112.873C171.186 114.024 169.771 116.185 168.246 118.987C172.174 114.749 175.944 112.715 179.755 112.715C185.659 112.715 189.048 117.042 189.048 124.589C189.048 138.069 178.147 159.531 165.233 159.531C162.096 159.531 159.72 158.409 158.17 156.201C155.894 152.95 155.876 147.82 156.737 142.692ZM162.574 131.719C158.647 142.625 157.862 150.965 160.424 154.613C161.441 156.065 163.015 156.772 165.233 156.772C176.091 156.772 186.292 136.693 186.292 124.585C186.292 121.719 185.732 119.386 184.675 117.842C183.581 116.243 181.969 115.467 179.752 115.467C174.506 115.465 169.046 120.63 162.574 131.719ZM103.367 119.647C99.5324 122.102 93.4724 127.868 91.7333 140.304C96.984 132.647 101.205 124.239 103.367 119.647ZM100.821 72.0676C95.7198 72.0676 86.9085 82.5991 78.3782 98.8915C71.1722 112.652 65.6852 127.582 64.2851 136.916C88.2998 116.703 105.583 85.1684 105.583 77.4315C105.583 73.8742 103.98 72.0676 100.821 72.0676Z" fill="black"/>
<path d="M58.0289 182.399L53.1372 182.379C52.2298 182.377 51.581 182.058 51.1886 181.429L47.3426 175.178C47.162 174.912 46.9591 174.716 46.7361 174.593C46.5132 174.468 46.1943 174.406 45.7774 174.404L44.404 174.399L44.3706 182.344L38.9661 182.324L39.0508 160.846L46.6291 160.877C48.3147 160.884 49.7483 161.049 50.9389 161.372C52.125 161.698 53.0949 162.146 53.844 162.719C54.5931 163.292 55.1372 163.968 55.4738 164.744C55.8105 165.525 55.9799 166.37 55.9777 167.282C55.9755 167.98 55.8707 168.638 55.6656 169.258C55.4582 169.876 55.1572 170.447 54.7626 170.974C54.368 171.5 53.8775 171.964 53.2933 172.374C52.7114 172.787 52.0403 173.121 51.2845 173.384C51.6345 173.552 51.9645 173.764 52.2722 174.013C52.5798 174.265 52.8563 174.564 53.0993 174.908L58.0289 182.399ZM46.5912 170.976C47.327 170.978 47.9512 170.895 48.473 170.724C48.988 170.556 49.4138 170.318 49.7461 170.014C50.076 169.711 50.319 169.357 50.4684 168.948C50.6178 168.54 50.6958 168.103 50.6981 167.63C50.7025 166.687 50.3726 165.949 49.7104 165.416C49.0437 164.883 48.0137 164.613 46.6157 164.608L44.4419 164.599L44.4151 170.967L46.5912 170.976Z" fill="#303030"/>
<path d="M61.926 175.59C62.0776 176.867 62.4968 177.795 63.179 178.373C63.859 178.951 64.7353 179.243 65.8144 179.245C66.3896 179.249 66.8846 179.187 67.3037 179.06C67.7207 178.933 68.0908 178.794 68.414 178.638C68.7418 178.484 69.0406 178.342 69.3103 178.215C69.5846 178.087 69.87 178.025 70.1687 178.027C70.5634 178.029 70.8621 178.163 71.0628 178.429L72.4964 180.07C71.9836 180.608 71.4284 181.047 70.8354 181.384C70.2423 181.721 69.6359 181.984 69.0093 182.173C68.3873 182.363 67.7608 182.492 67.1365 182.564C66.5145 182.635 65.9192 182.671 65.3528 182.669C64.1912 182.662 63.101 182.486 62.0865 182.133C61.0676 181.781 60.1802 181.257 59.4199 180.568C58.6619 179.876 58.0644 179.02 57.6229 177.996C57.1859 176.972 56.9674 175.784 56.9719 174.425C56.9786 173.404 57.1703 172.436 57.5516 171.524C57.935 170.611 58.4813 169.811 59.1948 169.128C59.9038 168.441 60.7644 167.899 61.7744 167.502C62.7821 167.103 63.9215 166.905 65.1901 166.911C66.287 166.916 67.2903 167.076 68.2045 167.395C69.1119 167.714 69.8967 168.174 70.55 168.774C71.2032 169.378 71.7116 170.114 72.0772 170.984C72.4429 171.854 72.6213 172.84 72.6168 173.941C72.6146 174.285 72.599 174.564 72.5655 174.782C72.5321 174.998 72.4741 175.168 72.3872 175.295C72.3024 175.424 72.1887 175.511 72.0438 175.558C71.9011 175.607 71.7183 175.63 71.4931 175.63L61.926 175.59ZM68.171 172.962C68.171 172.599 68.1242 172.246 68.0239 171.898C67.9235 171.555 67.7608 171.247 67.5311 170.975C67.3015 170.705 67.0027 170.484 66.6304 170.315C66.258 170.148 65.8055 170.063 65.2726 170.061C64.3339 170.056 63.5982 170.301 63.0653 170.797C62.528 171.292 62.1735 172.003 61.9996 172.938L68.171 172.962Z" fill="#303030"/>
<path d="M89.2028 160.455L89.1158 182.524L86.0457 182.51C85.4259 182.508 85.0223 182.252 84.8328 181.739L84.4538 180.574C84.1216 180.898 83.7715 181.19 83.4103 181.455C83.0469 181.719 82.6523 181.946 82.2331 182.136C81.8117 182.327 81.3547 182.47 80.8709 182.573C80.387 182.673 79.8609 182.722 79.2968 182.72C78.4317 182.718 77.6335 182.537 76.9 182.18C76.1665 181.826 75.5355 181.31 75.0026 180.641C74.4697 179.972 74.0573 179.152 73.7563 178.181C73.4553 177.211 73.3081 176.107 73.3126 174.872C73.3171 173.73 73.4932 172.672 73.8365 171.696C74.1799 170.719 74.666 169.878 75.2925 169.166C75.919 168.455 76.6703 167.902 77.5466 167.5C78.425 167.101 79.3882 166.903 80.4428 166.907C81.3101 166.912 82.0325 167.028 82.6188 167.255C83.2052 167.483 83.7359 167.788 84.2152 168.176L84.2464 160.435L89.2028 160.455ZM84.2018 171.314C83.8295 170.928 83.4259 170.659 82.9889 170.507C82.5542 170.353 82.0971 170.275 81.6155 170.275C81.1585 170.273 80.7348 170.353 80.3514 170.518C79.9679 170.683 79.6357 170.951 79.3503 171.316C79.0671 171.684 78.8419 172.162 78.6814 172.753C78.5187 173.342 78.4362 174.053 78.4339 174.889C78.4295 175.695 78.4897 176.373 78.6167 176.923C78.7438 177.474 78.92 177.918 79.1452 178.259C79.3748 178.601 79.649 178.846 79.9656 178.993C80.2889 179.14 80.6434 179.218 81.0358 179.221C81.397 179.221 81.727 179.189 82.0191 179.127C82.3134 179.067 82.5809 178.975 82.8262 178.859C83.0714 178.741 83.3055 178.594 83.524 178.413C83.7448 178.23 83.9588 178.023 84.1751 177.789L84.2018 171.314Z" fill="#303030"/>
<path d="M106.128 167.304L106.067 182.591L102.997 182.579C102.38 182.577 101.974 182.321 101.784 181.808L101.499 180.922C101.178 181.208 100.846 181.462 100.505 181.694C100.163 181.924 99.7978 182.118 99.4076 182.278C99.0174 182.439 98.5961 182.566 98.1434 182.657C97.6908 182.749 97.1981 182.793 96.6652 182.793C95.76 182.789 94.9552 182.642 94.2618 182.35C93.5639 182.055 92.9753 181.649 92.4982 181.125C92.021 180.601 91.6598 179.986 91.419 179.279C91.176 178.572 91.0579 177.793 91.0601 176.948L91.1002 167.248L96.0588 167.268L96.0187 176.968C96.0164 177.726 96.1993 178.313 96.5716 178.723C96.9417 179.14 97.4902 179.345 98.2148 179.35C98.7588 179.352 99.2694 179.247 99.7443 179.038C100.219 178.828 100.681 178.543 101.131 178.181L101.173 167.286L106.128 167.304Z" fill="#303030"/>
<path d="M124.006 182.659L119.242 182.639C118.889 182.639 118.604 182.559 118.386 182.403C118.167 182.245 117.995 182.057 117.87 181.839L114.93 177.142C114.876 177.309 114.809 177.467 114.736 177.612C114.662 177.757 114.58 177.898 114.495 178.025L112.049 181.819C111.9 182.015 111.724 182.196 111.518 182.361C111.316 182.528 111.055 182.608 110.734 182.608L106.321 182.59L111.918 174.711L106.604 167.306L111.371 167.326C111.721 167.326 111.982 167.371 112.147 167.455C112.312 167.538 112.459 167.681 112.584 167.875L115.525 172.411C115.59 172.237 115.67 172.063 115.766 171.892C115.864 171.72 115.969 171.546 116.089 171.37L118.212 167.973C118.363 167.757 118.522 167.603 118.687 167.505C118.854 167.406 119.057 167.36 119.302 167.36L123.844 167.377L118.475 174.537L124.006 182.659Z" fill="#303030"/>
</svg>
