<?xml version="1.0" encoding="utf-8"?>
<!-- Generator: Adobe Illustrator 16.0.4, SVG Export Plug-In . SVG Version: 6.00 Build 0)  -->
<!DOCTYPE svg PUBLIC "-//W3C//DTD SVG 1.1//EN" "http://www.w3.org/Graphics/SVG/1.1/DTD/svg11.dtd">
<svg version="1.1" id="Layer_2" xmlns="http://www.w3.org/2000/svg" xmlns:xlink="http://www.w3.org/1999/xlink" x="0px" y="0px"
	 width="1250px" height="328px" viewBox="0 0 1250 328" enable-background="new 0 0 1250 328" xml:space="preserve">
<path id="path9_fill" fill="#170201" d="M1110.628,298.502c4.399,0.799,22.998-2.498,31.747-4.246c0-29.476,5.749-122.397,0-160.366
	c4.499,5.995,53.744,81.183,55.994,93.671c2.25,12.49-2,68.943-2,68.943c7.332-0.833,22.197-0.85,30.996-2.248
	c2.6-29.775,5.5-198.334-3.25-285.262c-4.999,1.916-18.147,6.396-30.746,8.993c5.5,7.244,7.25,121.647,7.25,151.872
	c-2-12.739-58.244-84.429-63.744-93.172c0-6.744-9.748-53.705-9.748-58.7c0,0,0-0.749,0.75-1.249l-2.75-3.996l-27.747,12.738
	c9.999,46.461,17.498,129.043,18.498,168.609c0.999,39.566-5.083,80.433-8.249,95.92
	C1107.629,291.424,1108.229,295.105,1110.628,298.502z"/>
<path id="path8_fill" fill="#170201" d="M911.153,11.5c42.996,0,52.744,42.131,52.244,64.195c-3.666,0-14.697,4.396-29.496,7.994
	c0-35.471-18.248-41.465-26.747-41.465s-29.339,8.992-27.497,26.727c2.75,26.479,83.74,93.422,84.74,137.385
	c0,36.969-6.249,94.671-63.242,94.671c-45.596,0-53.994-67.776-53.994-106.661c5.749-3.996,18.748-9.491,32.496-11.49
	c-4.5,36.969,5.749,90.175,27.497,90.175c15.749,0,26.747-23.729,26.747-61.198S849.909,109.418,849.909,70.7
	C847.16,53.965,857.408,11.5,911.153,11.5z"/>
<path id="path7_fill" fill="#170201" d="M736.672,9.998c47.595-0.8,57.826,61.281,56.744,92.422l-30.497,1.998
	c-0.917-20.898-6.649-65.695-30.247-65.695c-28.996,0-38.496,42.715-38.496,99.916c0,57.203,14.249,135.637,37.996,135.637
	c23.748,0,21.248-58.201,21.248-71.689c-4.199-2.998-22.748-1.249-31.496,0c-0.75-7.66-2.25-22.631-2.25-31.225
	c6.749-2.497,47.744,3.248,67.992,5.996c0,11.24,2.25,126.644-58.743,126.644S663.68,178.357,663.68,129.148
	C663.68,79.94,677.178,10.996,736.672,9.998z"/>
<path id="path6_fill" fill="#170201" d="M529.194,204.582c1.399,32.174,7.416,73.688,10.248,90.425
	c9.499-0.583,25.297-1.749,26.498-1.749c1.199,0,1.999-2.498,2.249-3.746c-2.417-12.49-7.649-42.465-9.249-62.447
	c-1.6-19.984-3.166-76.936-3.75-102.914c9.916,21.564,23.848,49.258,32.247,64.445c10.223,18.484,20.997,32.723,20.997,32.723
	l8,73.438l28.746-1.499c-3.082-27.643-9.049-91.523-10.248-120.898c-1.2-29.375,0-117.151,19.998-151.623l-1-3.496
	c-7.666,0.582-22.598,1.748-28.998,1.748c-5.248,5.995-14.498,41.715-16.998,63.697c-1.999,17.585-2.666,62.78-2.999,79.932
	c0.142-10.74-48.745-100.665-47.745-117.65c0.377-6.387-0.25-18.484,3-25.229l-1-2.498c-7.416,0.666-19.647,0.35-26.247,1.748
	C525.694,22.736,527.444,164.366,529.194,204.582z"/>
<path fill="#170201" d="M1034.889,157.125c-26.498,0-60.744,31.973-60.744,59.449c0,46.961,25.998,60.2,53.744,60.2
	c27.747,0,69.742-28.726,69.742-60.2C1097.631,185.102,1061.385,157.125,1034.889,157.125z M1027.639,246.3
	c-13.452,0-23.247-20.663-23.247-33.722c0-12.188,20.028-23.48,34.626-23.48c13.166,0,26.117,20.547,26.117,31.974
	C1064.943,230.593,1041.092,246.3,1027.639,246.3z"/>
<path id="path4_fill" fill="#170201" d="M213.477,303.502c-10.499-4.246-29.997-9.991-29.997-9.991
	c19.998-38.468,75.492-180.849,53.494-266.776c4.791-1.504,12.73-5.031,19.221-7.915c5.361-2.382,9.734-4.325,10.526-4.325
	c1.75,0,1.25,3.748,1.25,3.748c0.486,6.068,9.825,18.801,20.961,33.986c11.784,16.065,25.58,34.876,33.033,51.441
	c11.499-13.238,30.497-55.203,30.497-86.428c9.159,0,24.345-0.634,30.525-0.892c1.578-0.065,2.569-0.107,2.721-0.107
	c0.3,0-0.032,1.12-0.527,2.783c-0.741,2.495-1.845,6.212-1.723,9.207c0.222,5.425,2.835,19.283,6.492,38.688
	c8.232,43.675,21.76,115.445,25.254,182.376c0.53,10.151,0.33,21.608,0.154,31.673c-0.08,4.547-0.154,8.809-0.154,12.54
	c-12.749,0-31.997,1.998-31.997,1.998v-42.464c0-40.967-13.582-155.037-18.248-162.863l-26.747,43.463
	c7.249,16.236,16.748,51.507,16.748,69.691c-1,28.976-16.249,45.962-46.495,45.962c-9.499,0-33.997-7.244-33.997-41.966
	c0-27.775,22.248-64.195,28.497-72.688c0,0-16.248-32.223-28.997-49.959C272.22,143.387,238.974,257.291,213.477,303.502z
	 M317.716,169.865c-7.916,16.403-22.248,50.708-3.5,50.708S322.798,186.268,317.716,169.865z"/>
<path id="path5_fill" fill="#170201" d="M462.202,296.256c7.799,0.2,25.247,3.997,37.745,3.498c1.801-1.6,2.084-21.648,2-31.475
	h-7.498l-8.5-121.647l-2.75-96.919h9.25c2.999-4.746,2.999-27.727,1.75-30.974c-1.286-0.749-7.25,0.499-12.999,0.499
	c-8.249,0-16.249-0.748-25.997-0.499c-7.799,0.2-15.332,0.499-17.998,0.999v31.973c5.249-0.749,12.498-1.498,14.748-0.749
	c0,72.689,4.25,145.128,10.249,214.57c-1.25-0.749-10.249,0-13.499,0v30.724H462.202z"/>
<path fill="#170201" d="M1034.889,35.225c-26.498,0-58.494,26.978-58.494,54.455c0,37.968,39.246,49.208,58.494,49.208
	s54.494-19.233,54.494-49.208C1089.383,58.205,1061.385,35.225,1034.889,35.225z M1031.389,107.914
	c-11.748,0-23.247-6.244-23.247-18.234c0-11.191,13.998-22.482,26.747-22.482c11.498,0,22.521,12.74,22.521,23.23
	C1057.242,99.172,1043.138,107.914,1031.389,107.914z"/>
<path fill="#170201" d="M161.484,88.68c-26.497,0-58.494,26.978-58.494,54.455c0,46.96,47.745,49.208,58.494,49.208
	c10.749,0,54.494-17.735,54.494-49.208C215.977,111.66,187.981,88.68,161.484,88.68z M157.484,159.62
	c-11.749,0-22.748-4.495-22.748-16.485c0-11.191,13.999-22.482,26.747-22.482c11.499,0,22.521,12.74,22.521,23.23
	C183.837,152.627,169.233,159.62,157.484,159.62z"/>
<path id="path0_fill" fill="#170201" d="M158.234,63.451c-4.25-13.988-24.497-48.031-57.744-48.459
	C49.996,14.341,15.5,59.205,15.5,117.647c2.75,106.16,37.996,181.857,90.99,181.857c39.196,0,57.494-38.719,63.493-75.938
	l-30.997-3.746c0,19.733-10.499,49.708-28.997,49.708c-42.495,0-62.243-94.171-62.243-158.367c0-30.483,24.297-64.696,47.495-64.696
	c23.198,0,35.246,23.98,38.496,35.971C138.154,79.272,149.235,71.045,158.234,63.451z"/>
</svg>
